<svg width="308" height="71.863" viewBox="0 0 308 71.863" xmlns="http://www.w3.org/2000/svg"><g id="svgGroup" stroke-linecap="round" fill-rule="evenodd" font-size="9pt" stroke="#ffffff" stroke-width="1" fill="#ffffff" style="stroke:#ffffff;stroke-width:1;fill:#ffffff"><path d="M 87 30.913 A 429.995 429.995 0 0 0 87.034 30.146 Q 87.294 24.194 87.2 22.313 A 11.247 11.247 0 0 0 87.198 22.112 Q 87.182 21.22 87.031 19.584 A 104.017 104.017 0 0 0 86.9 18.263 A 83.458 83.458 0 0 1 86.776 16.995 Q 86.6 15.038 86.6 13.813 L 86.6 12.763 A 10.975 10.975 0 0 0 86.597 12.513 Q 86.593 12.312 86.581 12.134 A 5.78 5.78 0 0 0 86.55 11.813 A 5.383 5.383 0 0 1 86.529 11.617 Q 86.514 11.447 86.507 11.254 A 10.336 10.336 0 0 1 86.5 10.863 L 86.5 9.813 L 86.5 8.913 L 86.5 7.913 A 1.811 1.811 0 0 0 86.5 7.9 Q 86.499 7.69 86.45 6.963 A 35.811 35.811 0 0 1 86.429 6.63 Q 86.4 6.119 86.4 5.813 A 8.319 8.319 0 0 1 86.401 5.713 Q 86.408 5.106 86.5 3.863 A 59.428 59.428 0 0 0 86.541 3.265 Q 86.581 2.648 86.594 2.203 A 13.592 13.592 0 0 0 86.6 1.813 A 1.017 1.017 0 0 0 86.012 1.12 A 1.49 1.49 0 0 0 85.6 1.013 A 1.76 1.76 0 0 0 85.457 1.018 Q 84.759 1.075 84.791 1.716 A 1.308 1.308 0 0 0 84.8 1.813 L 84.8 3.813 Q 84.8 4.884 84.859 5.429 A 3.251 3.251 0 0 0 84.9 5.713 Q 85.079 8.848 85.018 9.496 A 0.836 0.836 0 0 1 85 9.613 Q 84.925 11.938 85.019 15.219 A 175.773 175.773 0 0 0 85.1 17.513 A 383.724 383.724 0 0 1 85.134 18.245 Q 85.364 23.27 85.317 25.324 A 18.141 18.141 0 0 1 85.3 25.813 L 85 30.013 Q 84.8 32.813 84.8 34.013 Q 84.556 37.913 84.577 40.888 A 58.721 58.721 0 0 0 84.6 42.213 A 85.801 85.801 0 0 1 84.639 43.212 Q 84.766 47.106 84.5 50.213 A 100.978 100.978 0 0 1 84.427 51.207 Q 84.263 53.277 84.1 54.013 Q 83.922 54.844 83.603 55.816 A 27.69 27.69 0 0 1 83.1 57.213 A 16.038 16.038 0 0 0 82.99 57.437 Q 82.721 57.997 82.35 58.863 A 193.924 193.924 0 0 0 82.317 58.94 Q 81.893 59.931 81.7 60.413 A 14.475 14.475 0 0 1 81.304 61.295 Q 80.778 62.362 80.2 63.013 Q 78.3 65.313 74.8 67.213 A 18.456 18.456 0 0 1 73.455 67.878 A 15.333 15.333 0 0 1 68.1 69.213 A 28.954 28.954 0 0 1 68.031 69.218 Q 64.371 69.506 61.3 68.813 A 19.381 19.381 0 0 1 59.219 68.216 Q 58.14 67.836 57.286 67.359 A 7.628 7.628 0 0 1 55.6 66.113 Q 54.615 65.203 53.055 62.801 A 63.605 63.605 0 0 1 52 61.113 A 20.066 20.066 0 0 1 50.83 58.775 A 23.888 23.888 0 0 1 49.5 54.513 A 234.134 234.134 0 0 1 49.41 54.069 Q 48.482 49.476 48.1 46.613 Q 47.8 43.113 47.8 38.513 A 58.239 58.239 0 0 1 47.805 37.781 Q 47.81 37.393 47.82 36.962 A 114.52 114.52 0 0 1 47.85 35.863 Q 47.9 34.313 47.95 32.863 Q 48 31.413 48 30.213 A 54.513 54.513 0 0 0 47.995 29.479 Q 47.983 28.588 47.944 27.325 A 258.525 258.525 0 0 0 47.9 26.013 A 261.825 261.825 0 0 1 47.859 24.777 Q 47.819 23.502 47.806 22.6 A 55.649 55.649 0 0 1 47.8 21.813 Q 47.8 17.813 48 13.613 A 33.567 33.567 0 0 1 48.003 13.202 Q 48.012 12.473 48.05 11.363 Q 48.1 9.913 48.1 9.613 A 87.033 87.033 0 0 0 48.126 8.803 Q 48.184 6.709 48.1 5.613 Q 47.775 2.769 47.714 1.905 A 4.63 4.63 0 0 1 47.7 1.613 A 1.207 1.207 0 0 0 47.681 1.391 Q 47.573 0.813 46.85 0.813 A 1.335 1.335 0 0 0 46.541 0.845 Q 46 0.974 46 1.613 Q 45.919 2.669 46.102 4.715 A 56.926 56.926 0 0 0 46.2 5.713 A 60.82 60.82 0 0 1 46.205 5.758 Q 46.499 8.525 46.4 10.013 A 311.383 311.383 0 0 0 46.381 10.258 Q 45.998 15.195 45.9 18.513 Q 45.9 21.013 46.1 27.013 Q 46.2 29.913 46.3 35.713 Q 46.4 42.313 46.5 44.213 Q 46.8 48.713 47.3 52.413 Q 48 56.913 49.3 59.913 Q 49.534 60.538 50.379 61.956 A 58.601 58.601 0 0 0 50.9 62.813 A 36.991 36.991 0 0 0 50.991 62.984 Q 51.937 64.758 52.7 65.713 Q 54.7 68.413 57.8 69.713 Q 60.8 70.913 64.7 71.013 A 22.499 22.499 0 0 0 65.325 71.021 Q 68.432 71.021 71.408 70.157 A 24.796 24.796 0 0 0 78.4 66.813 A 28.731 28.731 0 0 0 78.466 66.766 Q 81.712 64.49 82.9 62.313 A 14.688 14.688 0 0 0 82.948 62.216 Q 83.189 61.721 84.5 59.013 A 36.007 36.007 0 0 0 84.581 58.831 Q 85.414 56.953 85.7 55.713 A 8.464 8.464 0 0 0 85.706 55.694 Q 86.401 53.389 86.7 47.713 Q 86.8 46.813 86.7 43.563 A 730.645 730.645 0 0 1 86.694 43.367 Q 86.618 40.881 86.604 39.833 A 30.949 30.949 0 0 1 86.6 39.413 A 36.711 36.711 0 0 1 86.603 38.995 Q 86.632 36.438 87 30.913 Z M 51.63 16.788 A 15220.467 15220.467 0 0 0 51.7 18.713 Q 51.9 23.713 51.7 27.113 A 373.206 373.206 0 0 1 51.644 29.181 A 415.645 415.645 0 0 1 51.4 35.613 Q 51.175 43.488 51.456 48.775 A 67.733 67.733 0 0 0 51.7 52.013 A 29.583 29.583 0 0 0 51.743 52.371 Q 52.077 55.047 52.862 57.303 A 16.825 16.825 0 0 0 56.4 63.313 A 11.416 11.416 0 0 0 57.664 64.5 A 8.557 8.557 0 0 0 61.6 66.313 A 12.667 12.667 0 0 0 62.345 66.422 Q 64.882 66.721 68.1 66.113 A 25.319 25.319 0 0 0 68.509 66.035 Q 71.544 65.431 73.7 64.213 A 11.112 11.112 0 0 0 76.003 62.464 A 14.72 14.72 0 0 0 77.8 60.313 Q 79.638 57.753 80.614 53.988 A 32.33 32.33 0 0 0 81.4 49.713 Q 81.728 47.088 81.841 45.065 A 35.254 35.254 0 0 0 81.9 43.113 Q 81.721 39.708 81.783 39.033 A 0.845 0.845 0 0 1 81.8 38.913 A 13.632 13.632 0 0 1 81.806 38.546 Q 81.818 38.1 81.856 37.469 A 64.962 64.962 0 0 1 81.9 36.813 A 92.412 92.412 0 0 0 81.933 36.339 Q 81.981 35.613 81.995 35.196 A 8.816 8.816 0 0 0 82 34.913 A 107.866 107.866 0 0 0 82.023 34.54 Q 82.292 30.085 82.1 27.013 A 362.958 362.958 0 0 1 82.066 26.304 Q 81.836 21.44 81.883 19.478 A 16.358 16.358 0 0 1 81.9 19.013 Q 81.9 18.513 82 17.113 A 59.121 59.121 0 0 0 82.041 16.489 Q 82.081 15.84 82.094 15.35 A 16.722 16.722 0 0 0 82.1 14.913 L 82.1 10.813 A 13.347 13.347 0 0 1 82.064 10.281 Q 82.011 9.242 82.05 7.563 A 302.722 302.722 0 0 0 82.071 6.612 Q 82.1 5.155 82.1 4.313 A 11.197 11.197 0 0 0 82.1 4.273 Q 82.098 3.665 82.03 3.124 A 6.834 6.834 0 0 0 81.8 2.013 A 0.868 0.868 0 0 0 81.778 1.939 Q 81.662 1.603 81.3 1.513 A 0.898 0.898 0 0 0 81.288 1.509 Q 80.895 1.417 80.55 1.713 A 0.944 0.944 0 0 0 80.412 1.857 Q 80.264 2.051 80.279 2.283 A 0.736 0.736 0 0 0 80.3 2.413 Q 80.4 2.713 80.3 4.613 A 7.744 7.744 0 0 1 80.299 4.762 Q 80.291 5.136 80.25 5.713 A 29.557 29.557 0 0 0 80.229 6.024 Q 80.2 6.506 80.2 6.813 Q 80.1 8.913 80.3 14.913 Q 80.363 15.538 80.386 16.319 A 33.217 33.217 0 0 1 80.4 17.313 Q 80.4 18.713 80.45 20.113 A 97.891 97.891 0 0 1 80.457 20.297 Q 80.478 20.939 80.489 21.515 A 58.244 58.244 0 0 1 80.5 22.613 A 55.113 55.113 0 0 1 80.561 23.919 Q 80.624 25.704 80.586 27.713 A 93.584 93.584 0 0 1 80.5 30.313 Q 80.4 32.613 80 37.913 A 17.142 17.142 0 0 0 79.997 37.958 Q 79.901 39.354 79.95 41.913 A 108.165 108.165 0 0 1 79.951 41.968 Q 79.988 43.934 79.938 45.148 A 18.765 18.765 0 0 1 79.9 45.813 A 85.678 85.678 0 0 1 79.654 48.413 Q 79.044 53.916 77.9 56.613 A 16.18 16.18 0 0 1 77.187 58.136 A 11.631 11.631 0 0 1 70.8 63.813 Q 66.586 65.313 63.405 64.948 A 8.627 8.627 0 0 1 59.3 63.413 A 11.219 11.219 0 0 1 56.938 61.053 Q 55.758 59.475 54.939 57.35 A 24.283 24.283 0 0 1 53.8 53.313 Q 53.4 51.013 53.2 46.313 Q 53 41.913 52.9 38.213 A 136.281 136.281 0 0 1 52.911 36.561 Q 52.947 33.618 53.1 29.063 Q 53.263 24.228 53.359 22.662 A 15.625 15.625 0 0 1 53.4 22.113 L 53.4 18.063 L 53.4 13.913 Q 53.4 11.613 52.9 5.913 A 371.041 371.041 0 0 0 52.83 4.884 Q 52.722 3.32 52.649 2.507 A 24.128 24.128 0 0 0 52.6 2.013 A 1.255 1.255 0 0 0 52.568 1.718 Q 52.481 1.357 52.151 1.254 A 1.011 1.011 0 0 0 51.85 1.213 A 1.162 1.162 0 0 0 51.638 1.231 Q 51.238 1.305 51.083 1.681 A 1.288 1.288 0 0 0 51 2.013 Q 50.918 3.321 51.238 8.039 A 331.872 331.872 0 0 0 51.4 10.313 A 10.415 10.415 0 0 0 51.405 10.494 Q 51.434 11.406 51.63 16.788 Z M 267.45 63.163 A 1.043 1.043 0 0 0 267.322 63.128 Q 266.956 63.056 266.7 63.313 A 6.786 6.786 0 0 1 266.378 63.582 Q 265.513 64.268 263.612 65.451 A 102.697 102.697 0 0 1 262.2 66.313 A 34.147 34.147 0 0 0 261.613 66.682 Q 260.689 67.277 260 67.813 A 29.215 29.215 0 0 1 259.522 68.156 Q 258.352 68.978 257.6 69.313 Q 255.1 70.313 251.9 70.313 Q 250.213 70.313 247.586 69.868 A 63.289 63.289 0 0 1 245.2 69.413 A 68.681 68.681 0 0 1 244.557 69.267 Q 241.632 68.587 240.16 67.954 A 5.968 5.968 0 0 1 239.3 67.513 Q 238.019 66.744 236.656 65.4 A 25.429 25.429 0 0 1 235.1 63.713 Q 233.225 61.338 231.819 57.947 A 39.495 39.495 0 0 1 230.3 53.513 A 65.543 65.543 0 0 1 230.085 52.626 Q 229.777 51.318 229.558 50.134 A 37.178 37.178 0 0 1 229.2 47.813 A 43.994 43.994 0 0 0 229.093 47.245 Q 228.895 46.232 228.55 44.663 A 3399.721 3399.721 0 0 0 228.48 44.345 Q 228.084 42.541 227.9 41.713 A 39.824 39.824 0 0 1 227.82 41.049 Q 227.657 39.588 227.577 37.94 A 68.779 68.779 0 0 1 227.5 34.613 A 25.483 25.483 0 0 1 227.503 34.254 Q 227.512 33.62 227.55 32.663 Q 227.6 31.413 227.6 31.113 Q 227.663 29.863 227.764 28.847 A 27.159 27.159 0 0 1 227.9 27.713 A 44.356 44.356 0 0 1 228.261 25.511 A 37.531 37.531 0 0 1 229.4 21.013 Q 230.9 16.413 231.8 14.913 A 6.865 6.865 0 0 1 231.814 14.886 Q 232.113 14.293 232.7 13.413 A 157.345 157.345 0 0 1 232.793 13.273 Q 233.32 12.485 233.55 12.163 A 5.777 5.777 0 0 0 233.68 11.972 Q 233.778 11.823 233.882 11.647 A 12.573 12.573 0 0 0 234.1 11.263 Q 234.4 10.713 234.65 10.263 Q 234.9 9.813 235.2 9.413 A 15.747 15.747 0 0 1 236.01 8.239 A 17.435 17.435 0 0 1 239.1 5.113 Q 240.408 4.095 241.692 3.383 A 14.215 14.215 0 0 1 244.4 2.213 A 14.2 14.2 0 0 1 244.785 2.104 Q 247.052 1.501 249.99 1.501 A 29.98 29.98 0 0 1 250.8 1.513 A 10.027 10.027 0 0 1 251.336 1.539 Q 254.438 1.772 258.239 3.929 A 36.004 36.004 0 0 1 261.6 6.113 A 18.137 18.137 0 0 1 261.807 6.265 Q 262.423 6.727 262.829 7.118 A 4.997 4.997 0 0 1 263.2 7.513 A 1.56 1.56 0 0 0 263.24 7.551 Q 263.727 8.004 264.278 7.71 A 1.524 1.524 0 0 0 264.5 7.563 A 1.639 1.639 0 0 0 264.608 7.471 Q 265.073 7.035 264.819 6.51 A 1.36 1.36 0 0 0 264.7 6.313 A 6.623 6.623 0 0 0 264.583 6.158 Q 263.834 5.197 262.479 4.155 A 23.881 23.881 0 0 0 261 3.113 A 16.048 16.048 0 0 0 260.824 3.005 Q 259.491 2.209 257.877 1.591 A 26.207 26.207 0 0 0 254.7 0.613 Q 251.7 -0.187 247.8 0.213 A 26.996 26.996 0 0 0 246.443 0.393 Q 245.102 0.607 243.956 0.942 A 13.543 13.543 0 0 0 241.7 1.813 Q 239.8 2.813 236.5 5.513 A 7.869 7.869 0 0 0 236.454 5.547 Q 235.102 6.577 233.75 8.52 A 26.622 26.622 0 0 0 232.5 10.513 Q 230.063 14.494 229.275 15.966 A 10.038 10.038 0 0 0 229 16.513 Q 228.344 18.219 227.731 20.614 A 70.347 70.347 0 0 0 227.1 23.313 Q 226.622 25.438 226.398 27.337 A 27.151 27.151 0 0 0 226.2 30.513 Q 226.2 30.794 226.216 31.122 A 18.908 18.908 0 0 0 226.25 31.663 Q 226.3 32.313 226.3 32.963 L 226.3 34.113 A 14.857 14.857 0 0 1 226.3 34.134 Q 226.299 34.735 226.25 35.963 Q 226.2 37.213 226.2 37.913 A 21.535 21.535 0 0 0 226.279 39.696 Q 226.48 42.118 227.2 45.213 A 12.36 12.36 0 0 1 227.243 45.391 Q 227.426 46.169 227.589 47.288 A 46.724 46.724 0 0 1 227.75 48.513 Q 227.945 50.153 228.049 50.939 A 36.19 36.19 0 0 0 228.1 51.313 A 34.445 34.445 0 0 0 228.854 54.937 A 27.829 27.829 0 0 0 232.2 62.713 A 20.716 20.716 0 0 0 234.725 66.094 A 14.223 14.223 0 0 0 241.6 70.313 A 23.398 23.398 0 0 0 241.606 70.314 Q 242.359 70.515 243.213 70.69 A 39.507 39.507 0 0 0 245 71.013 A 15.539 15.539 0 0 0 245.084 71.029 Q 245.595 71.128 246.7 71.313 L 248.5 71.613 Q 251.8 72.113 255.1 71.613 Q 258.2 71.113 260.8 69.313 A 10.894 10.894 0 0 1 261.108 69.091 Q 261.89 68.545 263.25 67.763 A 14.902 14.902 0 0 1 263.252 67.761 Q 264.901 66.812 265.7 66.313 Q 266.7 65.513 267.8 64.413 A 0.92 0.92 0 0 0 267.877 64.326 Q 268.044 64.11 268.023 63.847 A 0.835 0.835 0 0 0 268 63.713 A 0.709 0.709 0 0 0 267.705 63.286 A 1.015 1.015 0 0 0 267.45 63.163 Z M 55.5 16.013 A 94.129 94.129 0 0 0 55.383 12.97 Q 55.3 11.481 55.171 10.19 A 44.989 44.989 0 0 0 55 8.713 A 29.682 29.682 0 0 1 54.766 6.619 Q 54.621 4.669 54.795 3.039 A 13.745 13.745 0 0 1 55 1.713 A 1.2 1.2 0 0 1 55.158 1.427 A 0.828 0.828 0 0 1 55.65 1.112 Q 55.983 1.039 56.288 1.21 A 1.269 1.269 0 0 1 56.5 1.363 A 1.028 1.028 0 0 1 56.698 1.591 Q 56.869 1.866 56.8 2.213 A 9.711 9.711 0 0 0 56.631 3.333 Q 56.547 4.226 56.589 5.277 A 18.911 18.911 0 0 0 56.6 5.513 Q 56.787 15.899 56.799 19.018 A 102.831 102.831 0 0 1 56.8 19.413 Q 56.8 20.213 56.75 22.763 Q 56.712 24.715 56.703 25.993 A 103.085 103.085 0 0 0 56.7 26.713 A 64.299 64.299 0 0 0 56.729 28.566 Q 56.79 30.64 56.973 33.414 A 206.246 206.246 0 0 0 57 33.813 A 67.101 67.101 0 0 1 56.997 34.399 Q 56.988 35.44 56.95 37.363 Q 56.908 39.489 57.041 40.538 A 5.317 5.317 0 0 0 57.1 40.913 Q 57.6 45.913 58 48.113 Q 58.459 51.252 59.036 53.629 A 35.547 35.547 0 0 0 59.4 55.013 A 16.92 16.92 0 0 0 60.058 56.703 Q 60.832 58.393 61.801 59.265 A 4.309 4.309 0 0 0 62.1 59.513 Q 64.007 60.639 65.989 60.639 A 7.056 7.056 0 0 0 66.6 60.613 A 8.114 8.114 0 0 0 70.395 59.267 A 9.853 9.853 0 0 0 70.9 58.913 Q 74.3 56.513 75.4 51.013 Q 76.1 48.013 76.2 41.313 L 76.2 38.763 L 76.2 36.613 A 1.654 1.654 0 0 1 76.201 36.572 Q 76.206 36.388 76.245 35.533 A 498.024 498.024 0 0 1 76.25 35.413 Q 76.3 34.313 76.3 33.713 Q 76.3 33.013 76.15 31.713 A 116.338 116.338 0 0 1 76.099 31.264 Q 76.014 30.497 76.002 30.271 A 1.176 1.176 0 0 1 76 30.213 L 76 27.913 A 15.257 15.257 0 0 1 76.006 27.506 Q 76.025 26.813 76.1 25.613 Q 76.192 24.139 76.284 23.429 A 9.087 9.087 0 0 1 76.3 23.313 L 76.3 22.463 A 7.224 7.224 0 0 0 76.276 21.867 A 6.126 6.126 0 0 0 76.25 21.613 Q 76.2 21.213 76.2 20.813 Q 76.2 20.413 76.15 20.013 A 6.515 6.515 0 0 1 76.105 19.439 A 7.689 7.689 0 0 1 76.1 19.163 A 7.224 7.224 0 0 0 76.076 18.567 A 6.126 6.126 0 0 0 76.05 18.313 A 6.515 6.515 0 0 1 76.005 17.739 A 7.689 7.689 0 0 1 76 17.463 L 76 16.613 Q 76 15.692 76.042 13.668 A 455.17 455.17 0 0 1 76.05 13.313 Q 76.1 11.013 76.1 9.813 Q 76 7.413 75.9 6.113 A 2.637 2.637 0 0 1 75.866 5.837 Q 75.812 5.191 75.802 3.434 A 149.001 149.001 0 0 1 75.8 2.613 A 1.227 1.227 0 0 1 75.834 2.314 A 0.709 0.709 0 0 1 76.25 1.813 A 1.156 1.156 0 0 1 76.545 1.724 Q 76.806 1.685 77.066 1.779 A 1.269 1.269 0 0 1 77.15 1.813 Q 77.6 2.013 77.6 2.613 L 77.6 6.213 Q 77.784 11.191 77.714 13.364 A 23.103 23.103 0 0 1 77.7 13.713 Q 77.6 16.213 77.9 20.613 Q 78 21.713 77.9 22.863 A 133.714 133.714 0 0 1 77.795 24.007 Q 77.73 24.692 77.65 25.463 Q 77.503 26.886 77.5 27.587 A 6.738 6.738 0 0 0 77.5 27.613 Q 77.4 29.013 77.6 31.563 Q 77.791 33.993 77.709 35.106 A 6.2 6.2 0 0 1 77.7 35.213 Q 77.7 36.513 77.85 41.363 A 88.184 88.184 0 0 1 77.881 42.652 Q 77.933 45.844 77.72 48.17 A 27.912 27.912 0 0 1 77.6 49.263 Q 77.2 52.313 75.9 55.113 Q 75.2 56.613 74.1 57.913 Q 73 59.213 71.6 60.213 Q 70.2 61.213 68.6 61.713 A 8.774 8.774 0 0 1 65.808 62.17 Q 64.743 62.17 63.65 61.913 Q 61.1 61.313 59.5 59.213 A 8.086 8.086 0 0 1 58.684 57.893 Q 57.795 56.133 57.1 53.213 A 33.306 33.306 0 0 1 56.516 50.56 Q 56.28 49.251 56.098 47.763 A 65.147 65.147 0 0 1 55.9 45.913 Q 55.3 39.213 55.3 38.413 Q 55.392 33.716 55.399 31.563 A 103.955 103.955 0 0 0 55.4 31.213 Q 55.4 30.064 55.429 28.212 A 446.868 446.868 0 0 1 55.45 27.013 Q 55.497 24.486 55.5 23.711 A 25.481 25.481 0 0 0 55.5 23.613 L 55.5 16.013 Z M 13.6 7.213 A 13.331 13.331 0 0 0 11.458 8.238 Q 10.188 9.002 9.29 9.995 A 8.243 8.243 0 0 0 9.1 10.213 A 15.259 15.259 0 0 0 7.297 13.076 Q 5.443 16.976 6.752 21.017 A 12.604 12.604 0 0 0 7 21.713 Q 8 24.213 10.4 27.213 A 36.566 36.566 0 0 0 11.851 28.869 Q 13.394 30.519 14.7 31.413 A 28.796 28.796 0 0 0 15.791 32.119 Q 17.638 33.263 20.75 34.913 Q 24.11 36.694 25.995 37.95 A 21.002 21.002 0 0 1 26.8 38.513 A 36.458 36.458 0 0 0 26.965 38.622 Q 27.236 38.8 27.757 39.14 A 554.842 554.842 0 0 0 28.1 39.363 Q 28.924 39.898 29.409 40.264 A 8.69 8.69 0 0 1 29.6 40.413 Q 30.5 41.213 31.7 42.713 A 23.06 23.06 0 0 1 33.345 45.276 Q 34.247 46.927 34.7 48.513 A 17.677 17.677 0 0 1 35.294 51.022 Q 36.008 55.565 33.8 59.113 A 12.164 12.164 0 0 1 30.44 62.712 Q 28.938 63.805 26.979 64.67 A 26.25 26.25 0 0 1 24.8 65.513 A 15.591 15.591 0 0 1 21.639 66.175 Q 18.069 66.561 13.503 65.633 A 40.102 40.102 0 0 1 13.4 65.613 Q 10.8 65.113 7.3 63.413 Q 6.2 62.913 4.2 62.013 A 202.528 202.528 0 0 1 3.609 61.752 Q 1.756 60.929 1.429 60.731 A 0.807 0.807 0 0 1 1.4 60.713 A 1.236 1.236 0 0 1 1.189 60.515 A 0.769 0.769 0 0 1 1 60.013 A 0.696 0.696 0 0 1 1.253 59.471 A 1.113 1.113 0 0 1 1.4 59.363 A 0.799 0.799 0 0 1 1.565 59.283 Q 1.877 59.176 2.189 59.404 A 1.122 1.122 0 0 1 2.2 59.413 Q 2.7 59.713 3.8 60.113 A 38.552 38.552 0 0 1 4.059 60.208 Q 4.913 60.525 5 60.613 A 19.919 19.919 0 0 0 5.084 60.654 Q 5.494 60.856 7.55 61.863 Q 9.412 62.774 10.552 63.214 A 12.531 12.531 0 0 0 11.1 63.413 Q 13.878 64.305 17.444 64.608 A 39.407 39.407 0 0 0 17.5 64.613 Q 21.728 65.082 25.833 63.223 A 20.348 20.348 0 0 0 28.1 62.013 A 18.646 18.646 0 0 0 29.848 60.889 Q 30.691 60.273 31.33 59.63 A 8.566 8.566 0 0 0 32.2 58.613 Q 33.6 56.513 33.6 53.413 A 12.139 12.139 0 0 0 33.608 52.963 A 12.344 12.344 0 0 0 32.6 48.113 Q 31.4 44.913 29.1 42.613 A 5.79 5.79 0 0 0 28.81 42.346 Q 28.163 41.784 26.6 40.613 Q 24.666 39.323 23.75 38.797 A 12.27 12.27 0 0 0 23.6 38.713 A 267.385 267.385 0 0 1 22.656 38.144 Q 21.741 37.589 21.065 37.168 A 72.102 72.102 0 0 1 20.5 36.813 Q 20.005 36.515 19.018 35.874 A 118.842 118.842 0 0 1 19 35.863 Q 18 35.213 17.6 34.913 A 107.373 107.373 0 0 1 15.873 33.812 Q 13.295 32.131 12.3 31.213 A 30.223 30.223 0 0 1 9.96 28.709 A 38.169 38.169 0 0 1 8.4 26.713 A 21.452 21.452 0 0 1 6.377 23.422 Q 4.909 20.422 4.909 17.548 A 11.177 11.177 0 0 1 5.2 15.013 Q 5.9 12.113 7.75 9.813 Q 9.6 7.513 12.2 6.313 A 20.159 20.159 0 0 1 19.067 4.539 Q 21.755 4.346 24.5 4.913 A 740.105 740.105 0 0 0 25.405 5.086 Q 27.07 5.404 27.615 5.498 A 15.248 15.248 0 0 0 27.7 5.513 A 26.04 26.04 0 0 1 28.591 5.649 Q 29.907 5.875 30.481 6.15 A 1.871 1.871 0 0 1 30.6 6.213 A 0.366 0.366 0 0 1 30.728 6.26 Q 31.149 6.473 32.772 7.647 A 116.601 116.601 0 0 1 33 7.813 A 1.861 1.861 0 0 0 33.171 7.963 Q 33.269 8.039 33.388 8.115 A 3.873 3.873 0 0 0 33.55 8.213 A 8.696 8.696 0 0 1 33.754 8.333 Q 33.956 8.455 34.091 8.556 A 2.54 2.54 0 0 1 34.1 8.563 A 7.65 7.65 0 0 1 34.206 8.644 Q 34.351 8.757 34.538 8.911 A 22.533 22.533 0 0 1 34.6 8.963 Q 34.83 9.154 35.001 9.316 A 5.149 5.149 0 0 1 35.1 9.413 A 1.049 1.049 0 0 1 35.193 9.582 Q 35.407 10.084 34.85 10.513 A 1.558 1.558 0 0 1 34.651 10.644 Q 34.122 10.934 33.7 10.513 Q 33.415 10.132 32.723 9.752 A 6.589 6.589 0 0 0 32.65 9.713 A 13.888 13.888 0 0 1 32.348 9.547 Q 31.922 9.306 31.748 9.156 A 0.856 0.856 0 0 1 31.7 9.113 A 18.265 18.265 0 0 0 30.988 8.569 Q 29.975 7.838 29.3 7.613 Q 28.471 7.336 26.54 6.89 A 102.017 102.017 0 0 0 26.2 6.813 Q 25.701 6.713 24.704 6.464 A 52.995 52.995 0 0 1 24.7 6.463 Q 23.876 6.256 23.323 6.152 A 10.733 10.733 0 0 0 23.1 6.113 Q 21.4 5.813 19.7 5.813 Q 16.9 5.913 13.6 7.213 Z M 107.3 7.213 A 13.331 13.331 0 0 0 105.158 8.238 Q 103.888 9.002 102.99 9.995 A 8.243 8.243 0 0 0 102.8 10.213 A 15.259 15.259 0 0 0 100.997 13.076 Q 99.143 16.976 100.452 21.017 A 12.604 12.604 0 0 0 100.7 21.713 Q 101.7 24.213 104.1 27.213 A 36.566 36.566 0 0 0 105.551 28.869 Q 107.094 30.519 108.4 31.413 A 28.796 28.796 0 0 0 109.491 32.119 Q 111.338 33.263 114.45 34.913 Q 117.81 36.694 119.695 37.95 A 21.002 21.002 0 0 1 120.5 38.513 A 36.458 36.458 0 0 0 120.665 38.622 Q 120.936 38.8 121.457 39.14 A 554.842 554.842 0 0 0 121.8 39.363 Q 122.624 39.898 123.109 40.264 A 8.69 8.69 0 0 1 123.3 40.413 Q 124.2 41.213 125.4 42.713 A 23.06 23.06 0 0 1 127.045 45.276 Q 127.947 46.927 128.4 48.513 A 17.677 17.677 0 0 1 128.994 51.022 Q 129.708 55.565 127.5 59.113 A 12.164 12.164 0 0 1 124.14 62.712 Q 122.638 63.805 120.679 64.67 A 26.25 26.25 0 0 1 118.5 65.513 A 15.591 15.591 0 0 1 115.339 66.175 Q 111.769 66.561 107.203 65.633 A 40.102 40.102 0 0 1 107.1 65.613 Q 104.5 65.113 101 63.413 Q 99.9 62.913 97.9 62.013 A 202.528 202.528 0 0 1 97.309 61.752 Q 95.456 60.929 95.129 60.731 A 0.807 0.807 0 0 1 95.1 60.713 A 1.236 1.236 0 0 1 94.889 60.515 A 0.769 0.769 0 0 1 94.7 60.013 A 0.696 0.696 0 0 1 94.953 59.471 A 1.113 1.113 0 0 1 95.1 59.363 A 0.799 0.799 0 0 1 95.265 59.283 Q 95.577 59.176 95.889 59.404 A 1.122 1.122 0 0 1 95.9 59.413 Q 96.4 59.713 97.5 60.113 A 38.552 38.552 0 0 1 97.759 60.208 Q 98.613 60.525 98.7 60.613 A 19.919 19.919 0 0 0 98.784 60.654 Q 99.194 60.856 101.25 61.863 Q 103.112 62.774 104.252 63.214 A 12.531 12.531 0 0 0 104.8 63.413 Q 107.578 64.305 111.144 64.608 A 39.407 39.407 0 0 0 111.2 64.613 Q 115.428 65.082 119.533 63.223 A 20.348 20.348 0 0 0 121.8 62.013 A 18.646 18.646 0 0 0 123.548 60.889 Q 124.391 60.273 125.03 59.63 A 8.566 8.566 0 0 0 125.9 58.613 Q 127.3 56.513 127.3 53.413 A 12.139 12.139 0 0 0 127.308 52.963 A 12.344 12.344 0 0 0 126.3 48.113 Q 125.1 44.913 122.8 42.613 A 5.79 5.79 0 0 0 122.51 42.346 Q 121.863 41.784 120.3 40.613 Q 118.366 39.323 117.45 38.797 A 12.27 12.27 0 0 0 117.3 38.713 A 267.385 267.385 0 0 1 116.356 38.144 Q 115.441 37.589 114.765 37.168 A 72.102 72.102 0 0 1 114.2 36.813 Q 113.705 36.515 112.718 35.874 A 118.842 118.842 0 0 1 112.7 35.863 Q 111.7 35.213 111.3 34.913 A 107.373 107.373 0 0 1 109.573 33.812 Q 106.995 32.131 106 31.213 A 30.223 30.223 0 0 1 103.66 28.709 A 38.169 38.169 0 0 1 102.1 26.713 A 21.452 21.452 0 0 1 100.077 23.422 Q 98.609 20.422 98.609 17.548 A 11.177 11.177 0 0 1 98.9 15.013 Q 99.6 12.113 101.45 9.813 Q 103.3 7.513 105.9 6.313 A 20.159 20.159 0 0 1 112.767 4.539 Q 115.455 4.346 118.2 4.913 A 740.105 740.105 0 0 0 119.105 5.086 Q 120.77 5.404 121.315 5.498 A 15.248 15.248 0 0 0 121.4 5.513 A 26.04 26.04 0 0 1 122.291 5.649 Q 123.607 5.875 124.181 6.15 A 1.871 1.871 0 0 1 124.3 6.213 A 0.366 0.366 0 0 1 124.428 6.26 Q 124.849 6.473 126.472 7.647 A 116.601 116.601 0 0 1 126.7 7.813 A 1.861 1.861 0 0 0 126.871 7.963 Q 126.969 8.039 127.088 8.115 A 3.873 3.873 0 0 0 127.25 8.213 A 8.696 8.696 0 0 1 127.454 8.333 Q 127.656 8.455 127.791 8.556 A 2.54 2.54 0 0 1 127.8 8.563 A 7.65 7.65 0 0 1 127.906 8.644 Q 128.051 8.757 128.238 8.911 A 22.533 22.533 0 0 1 128.3 8.963 Q 128.53 9.154 128.701 9.316 A 5.149 5.149 0 0 1 128.8 9.413 A 1.049 1.049 0 0 1 128.893 9.582 Q 129.107 10.084 128.55 10.513 A 1.558 1.558 0 0 1 128.351 10.644 Q 127.822 10.934 127.4 10.513 Q 127.115 10.132 126.423 9.752 A 6.589 6.589 0 0 0 126.35 9.713 A 13.888 13.888 0 0 1 126.048 9.547 Q 125.622 9.306 125.448 9.156 A 0.856 0.856 0 0 1 125.4 9.113 A 18.265 18.265 0 0 0 124.688 8.569 Q 123.675 7.838 123 7.613 Q 122.171 7.336 120.24 6.89 A 102.017 102.017 0 0 0 119.9 6.813 Q 119.401 6.713 118.404 6.464 A 52.995 52.995 0 0 1 118.4 6.463 Q 117.576 6.256 117.023 6.152 A 10.733 10.733 0 0 0 116.8 6.113 Q 115.1 5.813 113.4 5.813 Q 110.6 5.913 107.3 7.213 Z M 0.357 21.649 A 13.014 13.014 0 0 0 1.5 25.513 A 15.026 15.026 0 0 0 2.257 27.055 Q 3.269 28.866 5 31.013 Q 7.1 33.513 9.7 35.513 A 13.955 13.955 0 0 0 10.047 35.771 A 12.319 12.319 0 0 0 12.4 37.113 A 569.511 569.511 0 0 1 12.701 37.251 Q 14.41 38.035 15.112 38.372 A 20.618 20.618 0 0 1 15.4 38.513 A 29.677 29.677 0 0 0 15.977 38.888 A 35.115 35.115 0 0 0 17.35 39.713 Q 18.4 40.313 19.65 41.063 Q 20.9 41.813 21.6 42.213 A 18.767 18.767 0 0 1 23.908 43.796 A 13.973 13.973 0 0 1 26.2 46.113 Q 27.119 47.25 27.636 48.388 A 7.02 7.02 0 0 1 28.3 51.313 A 11.314 11.314 0 0 1 28.306 51.666 A 9.287 9.287 0 0 1 26.7 57.013 A 13.015 13.015 0 0 1 26.584 57.187 Q 25.723 58.462 24.829 59.115 A 3.554 3.554 0 0 1 23.6 59.713 Q 23.1 59.813 21.9 59.913 A 1229.396 1229.396 0 0 1 21.23 59.984 Q 19.394 60.18 19.067 60.208 A 1.174 1.174 0 0 1 19 60.213 Q 16.9 60.213 14.5 59.463 A 60.738 60.738 0 0 1 14.289 59.396 Q 12.038 58.684 10.7 58.063 Q 9.3 57.413 6.6 55.913 Q 6.3 55.713 5.95 55.563 A 13.747 13.747 0 0 1 5.695 55.45 A 11.376 11.376 0 0 1 5.3 55.263 Q 5 55.113 4.65 54.913 Q 4.3 54.713 4 54.613 A 1.134 1.134 0 0 0 3.92 54.553 Q 3.468 54.253 3.1 54.713 Q 2.772 55.123 2.982 55.533 A 1.071 1.071 0 0 0 3.1 55.713 Q 3.6 56.113 5.7 57.313 A 3.872 3.872 0 0 0 5.815 57.386 Q 6.017 57.511 6.319 57.669 A 16.793 16.793 0 0 0 6.6 57.813 A 18.625 18.625 0 0 1 7.045 58.042 A 15.11 15.11 0 0 1 7.7 58.413 Q 8.2 58.713 8.6 58.913 A 43.985 43.985 0 0 0 10.213 59.726 Q 11.433 60.309 12.538 60.733 A 21.096 21.096 0 0 0 14.6 61.413 A 15.141 15.141 0 0 0 15.358 61.594 Q 17.081 61.959 18.961 61.945 A 20.161 20.161 0 0 0 21.1 61.813 A 51.378 51.378 0 0 0 22.217 61.696 Q 23.849 61.507 24.635 61.283 A 2.759 2.759 0 0 0 25.1 61.113 A 5.99 5.99 0 0 0 26.229 60.407 Q 27.487 59.421 28.6 57.613 A 9.531 9.531 0 0 0 29.592 55.323 Q 30.006 53.876 30.006 52.222 A 13.516 13.516 0 0 0 30 51.813 A 9.477 9.477 0 0 0 29.323 48.28 Q 28.579 46.409 27.018 44.69 A 19.195 19.195 0 0 0 24.1 42.113 Q 23.5 41.613 22.7 41.113 A 35.616 35.616 0 0 0 22.478 40.975 Q 21.809 40.563 21.25 40.263 A 34.081 34.081 0 0 1 20.824 40.029 Q 20.602 39.905 20.359 39.766 A 60.288 60.288 0 0 1 19.75 39.413 Q 19.219 39.1 18.785 38.866 A 17.235 17.235 0 0 0 18.3 38.613 A 521.344 521.344 0 0 1 17.582 38.205 Q 15.616 37.087 15.27 36.863 A 0.577 0.577 0 0 1 15.2 36.813 Q 14.8 36.613 14.25 36.413 Q 13.7 36.213 13.15 35.963 A 38.922 38.922 0 0 1 12.821 35.811 Q 12.664 35.738 12.521 35.67 A 21.628 21.628 0 0 1 12.2 35.513 Q 10.1 34.413 7.2 31.413 Q 4.8 28.913 3.2 26.013 Q 0.2 20.613 2.2 13.513 A 14.409 14.409 0 0 1 5.41 7.779 A 17.363 17.363 0 0 1 9.7 4.413 A 19.305 19.305 0 0 1 19.686 1.756 A 24.229 24.229 0 0 1 22.4 1.913 Q 27.4 2.413 29.3 3.113 Q 31 3.713 33.5 5.413 L 34 5.663 Q 34.3 5.813 34.55 6.013 A 3.888 3.888 0 0 0 34.669 6.104 Q 34.76 6.171 34.843 6.223 A 1.858 1.858 0 0 0 35 6.313 Q 35.508 6.736 35.944 6.299 A 1.482 1.482 0 0 0 36.1 6.113 Q 36.511 5.537 36.179 5.097 A 1.122 1.122 0 0 0 36 4.913 A 20.853 20.853 0 0 0 33.517 3.031 A 15.891 15.891 0 0 0 27.25 0.613 A 88.569 88.569 0 0 0 26.882 0.558 Q 22.496 -0.084 20 0.013 Q 16.6 0.113 13.4 1.013 A 22.954 22.954 0 0 0 11.655 1.606 A 18.071 18.071 0 0 0 3.4 7.813 Q 0 12.513 0.2 19.313 A 16.816 16.816 0 0 0 0.357 21.649 Z M 94.057 21.649 A 13.014 13.014 0 0 0 95.2 25.513 A 15.026 15.026 0 0 0 95.957 27.055 Q 96.969 28.866 98.7 31.013 Q 100.8 33.513 103.4 35.513 A 13.955 13.955 0 0 0 103.747 35.771 A 12.319 12.319 0 0 0 106.1 37.113 A 569.511 569.511 0 0 1 106.401 37.251 Q 108.11 38.035 108.812 38.372 A 20.618 20.618 0 0 1 109.1 38.513 A 29.677 29.677 0 0 0 109.677 38.888 A 35.115 35.115 0 0 0 111.05 39.713 Q 112.1 40.313 113.35 41.063 Q 114.6 41.813 115.3 42.213 A 18.767 18.767 0 0 1 117.608 43.796 A 13.973 13.973 0 0 1 119.9 46.113 Q 120.819 47.25 121.336 48.388 A 7.02 7.02 0 0 1 122 51.313 A 11.314 11.314 0 0 1 122.006 51.666 A 9.287 9.287 0 0 1 120.4 57.013 A 13.015 13.015 0 0 1 120.284 57.187 Q 119.423 58.462 118.529 59.115 A 3.554 3.554 0 0 1 117.3 59.713 Q 116.8 59.813 115.6 59.913 A 1229.396 1229.396 0 0 1 114.93 59.984 Q 113.094 60.18 112.767 60.208 A 1.174 1.174 0 0 1 112.7 60.213 Q 110.6 60.213 108.2 59.463 A 60.738 60.738 0 0 1 107.989 59.396 Q 105.738 58.684 104.4 58.063 Q 103 57.413 100.3 55.913 Q 100 55.713 99.65 55.563 A 13.747 13.747 0 0 1 99.395 55.45 A 11.376 11.376 0 0 1 99 55.263 Q 98.7 55.113 98.35 54.913 Q 98 54.713 97.7 54.613 A 1.134 1.134 0 0 0 97.62 54.553 Q 97.168 54.253 96.8 54.713 Q 96.472 55.123 96.682 55.533 A 1.071 1.071 0 0 0 96.8 55.713 Q 97.3 56.113 99.4 57.313 A 3.872 3.872 0 0 0 99.515 57.386 Q 99.717 57.511 100.019 57.669 A 16.793 16.793 0 0 0 100.3 57.813 A 18.625 18.625 0 0 1 100.745 58.042 A 15.11 15.11 0 0 1 101.4 58.413 Q 101.9 58.713 102.3 58.913 A 43.985 43.985 0 0 0 103.913 59.726 Q 105.133 60.309 106.238 60.733 A 21.096 21.096 0 0 0 108.3 61.413 A 15.141 15.141 0 0 0 109.058 61.594 Q 110.781 61.959 112.661 61.945 A 20.161 20.161 0 0 0 114.8 61.813 A 51.378 51.378 0 0 0 115.917 61.696 Q 117.549 61.507 118.335 61.283 A 2.759 2.759 0 0 0 118.8 61.113 A 5.99 5.99 0 0 0 119.929 60.407 Q 121.187 59.421 122.3 57.613 A 9.531 9.531 0 0 0 123.292 55.323 Q 123.706 53.876 123.706 52.222 A 13.516 13.516 0 0 0 123.7 51.813 A 9.477 9.477 0 0 0 123.023 48.28 Q 122.279 46.409 120.718 44.69 A 19.195 19.195 0 0 0 117.8 42.113 Q 117.2 41.613 116.4 41.113 A 35.616 35.616 0 0 0 116.178 40.975 Q 115.509 40.563 114.95 40.263 A 34.081 34.081 0 0 1 114.524 40.029 Q 114.302 39.905 114.059 39.766 A 60.288 60.288 0 0 1 113.45 39.413 Q 112.919 39.1 112.485 38.866 A 17.235 17.235 0 0 0 112 38.613 A 521.344 521.344 0 0 1 111.282 38.205 Q 109.316 37.087 108.97 36.863 A 0.577 0.577 0 0 1 108.9 36.813 Q 108.5 36.613 107.95 36.413 Q 107.4 36.213 106.85 35.963 A 38.922 38.922 0 0 1 106.521 35.811 Q 106.364 35.738 106.221 35.67 A 21.628 21.628 0 0 1 105.9 35.513 Q 103.8 34.413 100.9 31.413 Q 98.5 28.913 96.9 26.013 Q 93.9 20.613 95.9 13.513 A 14.409 14.409 0 0 1 99.11 7.779 A 17.363 17.363 0 0 1 103.4 4.413 A 19.305 19.305 0 0 1 113.386 1.756 A 24.229 24.229 0 0 1 116.1 1.913 Q 121.1 2.413 123 3.113 Q 124.7 3.713 127.2 5.413 L 127.7 5.663 Q 128 5.813 128.25 6.013 A 3.888 3.888 0 0 0 128.369 6.104 Q 128.46 6.171 128.543 6.223 A 1.858 1.858 0 0 0 128.7 6.313 Q 129.208 6.736 129.644 6.299 A 1.482 1.482 0 0 0 129.8 6.113 Q 130.211 5.537 129.879 5.097 A 1.122 1.122 0 0 0 129.7 4.913 A 20.853 20.853 0 0 0 127.217 3.031 A 15.891 15.891 0 0 0 120.95 0.613 A 88.569 88.569 0 0 0 120.582 0.558 Q 116.196 -0.084 113.7 0.013 Q 110.3 0.113 107.1 1.013 A 22.954 22.954 0 0 0 105.355 1.606 A 18.071 18.071 0 0 0 97.1 7.813 Q 93.7 12.513 93.9 19.313 A 16.816 16.816 0 0 0 94.057 21.649 Z M 31.3 14.713 L 31.1 14.613 Q 31 14.513 30.6 14.313 A 535.722 535.722 0 0 1 29.802 13.913 Q 27.45 12.732 27.143 12.542 A 0.29 0.29 0 0 1 27.1 12.513 Q 23.6 10.913 23.5 10.913 A 8.722 8.722 0 0 0 22.219 10.599 Q 20.736 10.345 18.7 10.413 A 10.153 10.153 0 0 0 16.573 10.68 Q 15.238 11.005 14.254 11.718 A 5.607 5.607 0 0 0 13.2 12.713 A 5.882 5.882 0 0 0 11.866 15.622 A 7.324 7.324 0 0 0 11.8 16.113 Q 11.6 18.113 12.2 19.863 Q 12.8 21.613 13.8 23.213 Q 15.9 26.313 18.4 27.913 A 14.75 14.75 0 0 1 18.692 28.064 Q 19.469 28.475 21.5 29.613 A 9.522 9.522 0 0 0 21.982 29.95 A 11.987 11.987 0 0 0 22.4 30.213 Q 22.9 30.513 23.45 30.813 A 9.399 9.399 0 0 1 23.933 31.094 Q 24.188 31.253 24.4 31.413 Q 24.859 31.642 25.641 31.989 A 73.999 73.999 0 0 0 26.15 32.213 Q 27.3 32.713 28.2 33.213 A 10.193 10.193 0 0 1 29.319 33.93 A 8.656 8.656 0 0 1 29.8 34.313 A 35.228 35.228 0 0 1 31.792 35.934 Q 33.3 37.263 34.3 38.513 Q 38.266 43.238 39.455 47.963 A 17.041 17.041 0 0 1 39.8 49.713 A 22.449 22.449 0 0 1 40.018 51.681 Q 40.137 53.525 39.896 55.112 A 12.064 12.064 0 0 1 39.6 56.513 Q 38.7 60.013 36.6 62.313 Q 35.9 63.113 34.3 64.613 A 83.603 83.603 0 0 1 33.565 65.299 Q 32.561 66.224 32.013 66.653 A 6.272 6.272 0 0 1 31.8 66.813 Q 31.4 67.213 30.9 67.463 A 33.385 33.385 0 0 1 30.434 67.691 Q 30.195 67.806 29.93 67.929 A 56.048 56.048 0 0 1 29.75 68.013 A 15.086 15.086 0 0 0 29.447 68.156 Q 29.025 68.363 28.8 68.513 Q 28.503 68.711 27.862 69.056 A 31.841 31.841 0 0 1 27.85 69.063 A 18.347 18.347 0 0 0 27.391 69.318 Q 27.031 69.525 26.75 69.713 Q 26.3 70.013 25.8 70.213 Q 21.1 72.113 13.1 70.613 A 16.585 16.585 0 0 1 10.05 69.781 Q 8.655 69.262 7.184 68.477 A 28.714 28.714 0 0 1 6.7 68.213 A 19.467 19.467 0 0 0 6.088 67.894 Q 5.391 67.546 4.43 67.118 A 74.927 74.927 0 0 0 3.5 66.713 Q 1.479 65.846 0.569 65.35 A 9.73 9.73 0 0 1 0.5 65.313 A 1.238 1.238 0 0 1 0.236 65.105 A 0.832 0.832 0 0 1 0 64.513 Q 0 64.013 0.5 63.713 A 1.336 1.336 0 0 1 0.781 63.583 Q 1.119 63.476 1.456 63.596 A 1.222 1.222 0 0 1 1.5 63.613 Q 1.9 63.913 3 64.413 Q 3.842 64.795 4.391 65.061 A 26.286 26.286 0 0 1 4.7 65.213 Q 5.002 65.439 5.644 65.75 A 17.757 17.757 0 0 0 6.1 65.963 Q 7.1 66.413 7.5 66.713 Q 9.193 67.636 10.234 68.026 A 6.51 6.51 0 0 0 10.8 68.213 A 16.281 16.281 0 0 0 12.651 68.772 Q 13.63 69.011 14.792 69.196 A 41.811 41.811 0 0 0 17.3 69.513 A 34.6 34.6 0 0 0 18.789 69.596 Q 21.417 69.684 23.308 69.299 A 11.581 11.581 0 0 0 23.7 69.213 Q 25.2 68.813 26.6 68.013 A 2.61 2.61 0 0 0 26.704 67.957 Q 26.87 67.864 27.16 67.682 A 30.621 30.621 0 0 0 27.35 67.563 Q 27.9 67.213 28.2 67.013 A 3.521 3.521 0 0 0 28.406 66.936 Q 28.621 66.849 28.905 66.71 A 13.102 13.102 0 0 0 29 66.663 L 29.7 66.313 Q 30.9 65.813 32.5 64.313 L 34.8 62.013 A 12.485 12.485 0 0 0 37.285 58.346 A 11.573 11.573 0 0 0 38 56.113 A 14.511 14.511 0 0 0 38.267 53.764 Q 38.315 52.384 38.13 50.878 A 22.955 22.955 0 0 0 37.9 49.413 A 17.49 17.49 0 0 0 37.215 47.184 Q 36.811 46.114 36.242 44.947 A 35.35 35.35 0 0 0 35.5 43.513 Q 34.1 40.913 32.1 38.613 A 25.079 25.079 0 0 0 30.314 36.723 Q 29.391 35.849 28.484 35.204 A 12.431 12.431 0 0 0 27.4 34.513 Q 27.2 34.413 24.5 33.113 A 19.549 19.549 0 0 1 24.031 32.869 Q 23.31 32.483 22.094 31.782 A 164.203 164.203 0 0 1 21.8 31.613 Q 21.3 31.213 19.95 30.463 A 64.476 64.476 0 0 1 18.994 29.921 Q 18.525 29.65 18.117 29.402 A 33.064 33.064 0 0 1 17.65 29.113 A 14.055 14.055 0 0 1 15.95 27.856 A 13.021 13.021 0 0 1 15.9 27.813 Q 13.4 25.713 12.1 22.813 Q 11.088 20.654 10.759 18.905 A 8.624 8.624 0 0 1 10.6 17.313 A 9.975 9.975 0 0 1 10.859 14.986 A 7.476 7.476 0 0 1 12 12.413 A 7.306 7.306 0 0 1 14.789 10.128 A 10.409 10.409 0 0 1 16.8 9.413 A 12.905 12.905 0 0 1 19.269 9.031 Q 20.581 8.952 22.027 9.103 A 20.721 20.721 0 0 1 22.9 9.213 Q 23.5 9.313 26.1 10.113 A 19.736 19.736 0 0 1 26.844 10.419 Q 27.968 10.905 29.767 11.797 A 136.592 136.592 0 0 1 30.2 12.013 Q 31.776 12.842 32.32 13.327 A 1.572 1.572 0 0 1 32.5 13.513 A 1.408 1.408 0 0 1 32.65 13.687 Q 32.978 14.146 32.588 14.575 A 1.38 1.38 0 0 1 32.5 14.663 A 1.374 1.374 0 0 1 32.295 14.82 Q 31.798 15.127 31.3 14.713 Z M 125 14.713 L 124.8 14.613 Q 124.7 14.513 124.3 14.313 A 535.722 535.722 0 0 1 123.502 13.913 Q 121.15 12.732 120.843 12.542 A 0.29 0.29 0 0 1 120.8 12.513 Q 117.3 10.913 117.2 10.913 A 8.722 8.722 0 0 0 115.919 10.599 Q 114.436 10.345 112.4 10.413 A 10.153 10.153 0 0 0 110.273 10.68 Q 108.938 11.005 107.954 11.718 A 5.607 5.607 0 0 0 106.9 12.713 A 5.882 5.882 0 0 0 105.566 15.622 A 7.324 7.324 0 0 0 105.5 16.113 Q 105.3 18.113 105.9 19.863 Q 106.5 21.613 107.5 23.213 Q 109.6 26.313 112.1 27.913 A 14.75 14.75 0 0 1 112.392 28.064 Q 113.169 28.475 115.2 29.613 A 9.522 9.522 0 0 0 115.682 29.95 A 11.987 11.987 0 0 0 116.1 30.213 Q 116.6 30.513 117.15 30.813 A 9.399 9.399 0 0 1 117.633 31.094 Q 117.888 31.253 118.1 31.413 Q 118.559 31.642 119.341 31.989 A 73.999 73.999 0 0 0 119.85 32.213 Q 121 32.713 121.9 33.213 A 10.193 10.193 0 0 1 123.019 33.93 A 8.656 8.656 0 0 1 123.5 34.313 A 35.228 35.228 0 0 1 125.492 35.934 Q 127 37.263 128 38.513 Q 131.966 43.238 133.155 47.963 A 17.041 17.041 0 0 1 133.5 49.713 A 22.449 22.449 0 0 1 133.718 51.681 Q 133.837 53.525 133.596 55.112 A 12.064 12.064 0 0 1 133.3 56.513 Q 132.4 60.013 130.3 62.313 Q 129.6 63.113 128 64.613 A 83.603 83.603 0 0 1 127.265 65.299 Q 126.261 66.224 125.713 66.653 A 6.272 6.272 0 0 1 125.5 66.813 Q 125.1 67.213 124.6 67.463 A 33.385 33.385 0 0 1 124.134 67.691 Q 123.895 67.806 123.63 67.929 A 56.048 56.048 0 0 1 123.45 68.013 A 15.086 15.086 0 0 0 123.147 68.156 Q 122.725 68.363 122.5 68.513 Q 122.203 68.711 121.562 69.056 A 31.841 31.841 0 0 1 121.55 69.063 A 18.347 18.347 0 0 0 121.091 69.318 Q 120.731 69.525 120.45 69.713 Q 120 70.013 119.5 70.213 Q 114.8 72.113 106.8 70.613 A 16.585 16.585 0 0 1 103.75 69.781 Q 102.355 69.262 100.884 68.477 A 28.714 28.714 0 0 1 100.4 68.213 A 19.467 19.467 0 0 0 99.788 67.894 Q 99.091 67.546 98.13 67.118 A 74.927 74.927 0 0 0 97.2 66.713 Q 95.179 65.846 94.269 65.35 A 9.73 9.73 0 0 1 94.2 65.313 A 1.238 1.238 0 0 1 93.936 65.105 A 0.832 0.832 0 0 1 93.7 64.513 Q 93.7 64.013 94.2 63.713 A 1.336 1.336 0 0 1 94.481 63.583 Q 94.819 63.476 95.156 63.596 A 1.222 1.222 0 0 1 95.2 63.613 Q 95.6 63.913 96.7 64.413 Q 97.542 64.795 98.091 65.061 A 26.286 26.286 0 0 1 98.4 65.213 Q 98.702 65.439 99.344 65.75 A 17.757 17.757 0 0 0 99.8 65.963 Q 100.8 66.413 101.2 66.713 Q 102.893 67.636 103.934 68.026 A 6.51 6.51 0 0 0 104.5 68.213 A 16.281 16.281 0 0 0 106.351 68.772 Q 107.33 69.011 108.492 69.196 A 41.811 41.811 0 0 0 111 69.513 A 34.6 34.6 0 0 0 112.489 69.596 Q 115.117 69.684 117.008 69.299 A 11.581 11.581 0 0 0 117.4 69.213 Q 118.9 68.813 120.3 68.013 A 2.61 2.61 0 0 0 120.404 67.957 Q 120.57 67.864 120.86 67.682 A 30.621 30.621 0 0 0 121.05 67.563 Q 121.6 67.213 121.9 67.013 A 3.521 3.521 0 0 0 122.106 66.936 Q 122.321 66.849 122.605 66.71 A 13.102 13.102 0 0 0 122.7 66.663 L 123.4 66.313 Q 124.6 65.813 126.2 64.313 L 128.5 62.013 A 12.485 12.485 0 0 0 130.985 58.346 A 11.573 11.573 0 0 0 131.7 56.113 A 14.511 14.511 0 0 0 131.967 53.764 Q 132.015 52.384 131.83 50.878 A 22.955 22.955 0 0 0 131.6 49.413 A 17.49 17.49 0 0 0 130.915 47.184 Q 130.511 46.114 129.942 44.947 A 35.35 35.35 0 0 0 129.2 43.513 Q 127.8 40.913 125.8 38.613 A 25.079 25.079 0 0 0 124.014 36.723 Q 123.091 35.849 122.184 35.204 A 12.431 12.431 0 0 0 121.1 34.513 Q 120.9 34.413 118.2 33.113 A 19.549 19.549 0 0 1 117.731 32.869 Q 117.01 32.483 115.794 31.782 A 164.203 164.203 0 0 1 115.5 31.613 Q 115 31.213 113.65 30.463 A 64.476 64.476 0 0 1 112.694 29.921 Q 112.225 29.65 111.817 29.402 A 33.064 33.064 0 0 1 111.35 29.113 A 14.055 14.055 0 0 1 109.65 27.856 A 13.021 13.021 0 0 1 109.6 27.813 Q 107.1 25.713 105.8 22.813 Q 104.788 20.654 104.459 18.905 A 8.624 8.624 0 0 1 104.3 17.313 A 9.975 9.975 0 0 1 104.559 14.986 A 7.476 7.476 0 0 1 105.7 12.413 A 7.306 7.306 0 0 1 108.489 10.128 A 10.409 10.409 0 0 1 110.5 9.413 A 12.905 12.905 0 0 1 112.969 9.031 Q 114.281 8.952 115.727 9.103 A 20.721 20.721 0 0 1 116.6 9.213 Q 117.2 9.313 119.8 10.113 A 19.736 19.736 0 0 1 120.544 10.419 Q 121.668 10.905 123.467 11.797 A 136.592 136.592 0 0 1 123.9 12.013 Q 125.476 12.842 126.02 13.327 A 1.572 1.572 0 0 1 126.2 13.513 A 1.408 1.408 0 0 1 126.35 13.687 Q 126.678 14.146 126.288 14.575 A 1.38 1.38 0 0 1 126.2 14.663 A 1.374 1.374 0 0 1 125.995 14.82 Q 125.498 15.127 125 14.713 Z M 264.45 59.34 A 0.888 0.888 0 0 0 264.3 59.413 A 5.294 5.294 0 0 0 264.052 59.546 Q 263.663 59.767 263.119 60.144 A 27.468 27.468 0 0 0 262.6 60.513 Q 262.275 60.756 261.158 61.396 A 83.251 83.251 0 0 1 260.6 61.713 A 34.254 34.254 0 0 1 258.893 62.673 A 28.171 28.171 0 0 1 255.7 64.113 Q 252.8 65.113 250.6 65.413 A 8.754 8.754 0 0 1 250.192 65.448 Q 248.988 65.525 247.317 65.33 A 31.452 31.452 0 0 1 245.8 65.113 A 18.033 18.033 0 0 1 244.305 64.793 Q 242.461 64.31 241.3 63.513 Q 240.836 63.203 240.345 62.814 A 19.933 19.933 0 0 1 239.4 62.013 Q 238.913 61.595 238.475 60.791 A 9.2 9.2 0 0 1 238.1 60.013 A 68.881 68.881 0 0 0 237.308 58.259 A 82.087 82.087 0 0 0 235.8 55.213 A 1.849 1.849 0 0 0 235.77 55.129 Q 235.66 54.846 235.4 54.413 Q 235.1 53.913 234.9 53.513 A 4.35 4.35 0 0 1 234.829 53.363 A 3.818 3.818 0 0 1 234.6 52.713 A 8.06 8.06 0 0 1 234.268 51.942 Q 234.108 51.516 233.96 51.007 A 19.733 19.733 0 0 1 233.7 50.013 A 18 18 0 0 1 233.67 49.883 Q 233.382 48.618 233.044 46.338 A 134.112 134.112 0 0 1 232.8 44.613 A 4877.766 4877.766 0 0 1 232.654 43.248 Q 232.2 38.999 232.2 38.913 A 111.814 111.814 0 0 1 232.18 38.67 Q 231.99 36.328 231.8 32.813 A 28.373 28.373 0 0 1 231.783 31.835 Q 231.783 29.363 232.2 26.613 A 64.016 64.016 0 0 1 232.373 25.674 Q 232.638 24.293 232.938 23.072 A 35.996 35.996 0 0 1 233.6 20.713 Q 234.913 16.688 235.23 16.031 A 0.511 0.511 0 0 1 235.3 15.913 A 18.447 18.447 0 0 1 237.239 12.653 A 21.933 21.933 0 0 1 240.8 8.913 Q 241.809 8.081 243.171 7.391 A 19.37 19.37 0 0 1 245.2 6.513 A 20.128 20.128 0 0 1 245.351 6.451 Q 246.949 5.808 248 5.713 Q 249.4 5.513 251.2 5.813 A 37.188 37.188 0 0 1 252.171 6 Q 254.227 6.425 255.608 6.979 A 8.674 8.674 0 0 1 256.9 7.613 A 7.963 7.963 0 0 1 257.411 7.962 Q 258.375 8.674 259.562 9.928 A 35.603 35.603 0 0 1 260.8 11.313 Q 261.229 11.827 261.769 11.495 A 1.497 1.497 0 0 0 261.95 11.363 A 1.717 1.717 0 0 0 262.014 11.306 Q 262.487 10.863 262.299 10.326 A 1.295 1.295 0 0 0 262.2 10.113 A 13.968 13.968 0 0 0 260.978 8.436 A 10.608 10.608 0 0 0 258.7 6.413 Q 257.1 5.413 253.4 4.613 Q 249.6 3.813 247.3 4.313 Q 245.988 4.563 244.48 5.164 A 24.596 24.596 0 0 0 242.6 6.013 Q 240.2 7.313 238.4 8.713 Q 236.7 10.013 235.1 12.313 Q 233.7 14.313 232.9 16.713 Q 232.6 17.513 232.4 18.513 L 231.95 20.763 Q 231.77 21.661 231.617 22.224 A 7.492 7.492 0 0 1 231.5 22.613 A 76.083 76.083 0 0 0 231.396 23.074 Q 231.04 24.68 230.791 26.134 A 45.045 45.045 0 0 0 230.4 28.913 A 9.941 9.941 0 0 0 230.366 29.293 Q 230.229 31.181 230.5 35.513 A 404.208 404.208 0 0 0 230.538 36.165 Q 230.758 39.868 230.922 41.388 A 14.387 14.387 0 0 0 231 42.013 A 273.693 273.693 0 0 0 231.052 42.531 Q 231.116 43.155 231.206 44.019 A 1160.664 1160.664 0 0 0 231.3 44.913 Q 231.5 46.813 231.7 47.813 Q 232.044 50.288 232.529 52.054 A 16.109 16.109 0 0 0 233 53.513 Q 233.4 54.313 233.85 55.263 Q 234.3 56.213 234.95 57.363 Q 235.6 58.513 235.9 59.113 A 7.304 7.304 0 0 1 235.973 59.264 Q 236.153 59.644 236.4 60.263 A 14.669 14.669 0 0 0 236.458 60.404 Q 236.632 60.827 236.789 61.128 A 4.223 4.223 0 0 0 236.95 61.413 Q 237.2 61.813 237.6 62.363 A 9.236 9.236 0 0 0 237.975 62.845 A 7.004 7.004 0 0 0 238.4 63.313 A 29.211 29.211 0 0 0 239.389 64.158 Q 240.792 65.303 241.908 65.873 A 5.903 5.903 0 0 0 243 66.313 Q 245.4 67.013 248.1 67.313 Q 250.3 67.513 253.4 66.713 A 33.179 33.179 0 0 0 258.355 65.006 A 24.558 24.558 0 0 0 263.6 61.913 A 0.947 0.947 0 0 1 263.624 61.889 Q 263.818 61.71 265.2 60.513 A 1.113 1.113 0 0 0 265.201 60.511 Q 265.6 60.112 265.2 59.613 A 1.273 1.273 0 0 0 265.133 59.535 Q 264.821 59.203 264.45 59.34 Z M 237.4 26.013 A 58.579 58.579 0 0 0 236.95 27.519 Q 236.497 29.12 236.3 30.24 A 12.077 12.077 0 0 0 236.2 30.913 Q 236 34.213 235.9 35.963 A 11.289 11.289 0 0 0 235.884 36.424 Q 235.856 38.125 236.25 41.013 Q 236.7 44.313 237.05 46.063 Q 237.318 47.402 237.733 49.592 A 836.812 836.812 0 0 1 238 51.013 A 22.012 22.012 0 0 0 238.492 52.761 Q 238.771 53.606 239.095 54.313 A 10.841 10.841 0 0 0 239.5 55.113 Q 240.469 56.636 241.391 57.632 A 9.25 9.25 0 0 0 242.2 58.413 A 9.721 9.721 0 0 0 246.737 60.737 A 13.002 13.002 0 0 0 248.6 61.013 A 14.531 14.531 0 0 0 249.842 61.065 Q 251.98 61.065 254.191 60.444 A 19.345 19.345 0 0 0 255.8 59.913 Q 257.6 59.213 259.3 58.213 A 89.605 89.605 0 0 1 259.529 58.042 Q 259.866 57.79 260.462 57.35 A 975.756 975.756 0 0 1 260.85 57.063 Q 262 56.213 262.7 55.913 A 1.308 1.308 0 0 1 262.916 55.846 Q 263.023 55.824 263.125 55.824 A 0.881 0.881 0 0 1 263.6 55.963 A 1.167 1.167 0 0 1 263.792 56.11 Q 263.896 56.21 263.948 56.323 A 0.567 0.567 0 0 1 264 56.563 Q 264 56.856 263.719 57.114 A 1.551 1.551 0 0 1 263.6 57.213 A 7.011 7.011 0 0 0 263.263 57.429 Q 262.866 57.7 262.35 58.113 Q 261.737 58.603 261.492 58.826 A 2.704 2.704 0 0 0 261.4 58.913 Q 260.5 59.513 259.5 60.013 Q 257.5 61.213 255.2 61.913 A 19.169 19.169 0 0 1 251.767 62.683 Q 248.935 63.04 246.3 62.413 Q 242.2 61.413 239.5 58.013 A 11.927 11.927 0 0 1 238.118 55.721 Q 237.011 53.374 236.311 49.884 A 42.17 42.17 0 0 1 236.2 49.313 Q 236 48.513 235.45 45.913 Q 234.9 43.313 234.65 41.563 Q 234.4 39.813 234.3 38.113 A 60.109 60.109 0 0 1 234.27 36.456 Q 234.253 32.451 234.815 29.425 A 22.374 22.374 0 0 1 235.2 27.713 Q 235.5 26.713 236.05 24.963 A 278.818 278.818 0 0 0 236.301 24.159 Q 236.65 23.039 236.8 22.513 A 47.703 47.703 0 0 1 237.589 20.005 A 39.643 39.643 0 0 1 238.1 18.613 Q 240 14.313 242.6 11.913 Q 244.2 10.513 246.1 9.713 A 14.287 14.287 0 0 1 247.617 9.164 Q 248.911 8.782 249.999 8.782 A 5.741 5.741 0 0 1 250.6 8.813 Q 252 9.013 255.2 10.613 A 13.383 13.383 0 0 1 256.241 11.152 Q 256.764 11.454 257.186 11.773 A 6.792 6.792 0 0 1 257.6 12.113 L 258.1 12.613 Q 258.4 12.913 258.65 13.263 Q 258.9 13.613 259.2 13.813 A 0.906 0.906 0 0 1 259.337 13.946 Q 259.627 14.302 259.25 14.763 Q 258.86 15.24 258.432 15.077 A 0.827 0.827 0 0 1 258.3 15.013 A 10.244 10.244 0 0 1 257.766 14.652 Q 257.197 14.244 256.45 13.622 A 40.158 40.158 0 0 1 256.2 13.413 A 7.292 7.292 0 0 0 255.853 13.198 Q 255.336 12.894 254.407 12.419 A 75.678 75.678 0 0 0 253.8 12.113 A 22.777 22.777 0 0 0 253.518 11.928 Q 253.373 11.834 253.211 11.732 A 39.923 39.923 0 0 0 253.1 11.663 A 9.671 9.671 0 0 0 252.301 11.213 A 7.517 7.517 0 0 0 252.014 11.077 Q 251.788 10.975 251.6 10.913 Q 250.5 10.513 249.2 10.513 A 7.589 7.589 0 0 0 244.537 12.146 Q 243.15 13.194 241.9 14.913 A 15.911 15.911 0 0 0 240.767 16.799 Q 240.243 17.812 239.751 19.04 A 39.161 39.161 0 0 0 238.8 21.713 Q 238.57 22.325 238.253 23.319 A 79.61 79.61 0 0 0 238.05 23.963 Q 237.636 25.298 237.433 25.912 A 29.742 29.742 0 0 1 237.4 26.013 Z M 179.755 18.277 A 10.539 10.539 0 0 0 179.6 17.313 Q 179 14.813 176.3 10.313 Q 174.3 7.013 170.8 5.113 A 19.221 19.221 0 0 0 170.545 4.977 Q 168.622 3.975 166.305 3.314 A 31.281 31.281 0 0 0 161.9 2.413 Q 161.5 2.313 159.7 2.063 Q 157.9 1.813 157 1.713 A 40.88 40.88 0 0 0 156.168 1.597 Q 154.185 1.345 153.6 1.513 Q 153.417 1.574 153.327 1.709 A 0.517 0.517 0 0 0 153.25 1.913 Q 153.219 2.096 153.283 2.261 A 0.754 0.754 0 0 0 153.4 2.463 Q 153.57 2.675 153.811 2.635 A 0.578 0.578 0 0 0 153.9 2.613 A 0.237 0.237 0 0 1 153.925 2.606 Q 154.236 2.54 156 2.804 A 71.228 71.228 0 0 1 156.7 2.913 A 355.902 355.902 0 0 1 156.816 2.932 Q 159.139 3.32 160.7 3.613 A 61.997 61.997 0 0 1 161.129 3.674 Q 165.821 4.364 168.5 5.513 A 17.598 17.598 0 0 1 170.36 6.447 A 14.04 14.04 0 0 1 174.4 9.913 Q 176.6 12.713 177.9 16.113 A 9.539 9.539 0 0 1 178.108 16.723 Q 178.949 19.492 178.5 23.713 Q 178.2 27.313 176.5 30.613 Q 174.9 33.713 172.5 36.113 A 18.666 18.666 0 0 1 171.923 36.64 Q 169.857 38.453 166.8 40.113 Q 163.716 41.728 161.764 42.427 A 12.165 12.165 0 0 1 160.5 42.813 A 6.526 6.526 0 0 1 160.062 42.905 Q 158.896 43.113 156.9 43.113 A 25.483 25.483 0 0 0 156.542 43.115 Q 155.907 43.124 154.95 43.163 Q 153.7 43.213 153.2 43.213 A 1.504 1.504 0 0 0 152.949 43.261 Q 152.485 43.395 152.353 43.823 A 1.319 1.319 0 0 0 152.3 44.213 A 1.326 1.326 0 0 0 152.338 44.546 Q 152.445 44.953 152.844 45.068 A 1.296 1.296 0 0 0 153.2 45.113 Q 153.3 45.113 156.7 44.913 A 20.182 20.182 0 0 0 157.395 44.859 A 22.665 22.665 0 0 0 160.2 44.413 A 18.666 18.666 0 0 0 161.457 44.024 Q 162.537 43.65 163.724 43.108 A 37.637 37.637 0 0 0 166.1 41.913 A 75.924 75.924 0 0 0 167.455 41.171 Q 169.566 39.986 171.01 38.975 A 18.835 18.835 0 0 0 172.4 37.913 Q 175.2 35.513 177 32.413 A 23.17 23.17 0 0 0 177.507 31.506 A 19.996 19.996 0 0 0 179.6 25.413 Q 179.759 24.456 179.834 23.359 A 30.181 30.181 0 0 0 179.9 21.313 Q 179.9 19.505 179.755 18.277 Z M 142.533 55.3 A 74.764 74.764 0 0 0 142.4 50.913 Q 142.138 45.4 142.105 44.405 A 7.142 7.142 0 0 1 142.1 44.213 A 164.436 164.436 0 0 1 142.083 43.289 Q 142.032 40.178 142.142 38.768 A 8.828 8.828 0 0 1 142.2 38.213 A 49.085 49.085 0 0 0 142.31 36.713 Q 142.455 34.183 142.3 32.013 Q 141.997 28.072 141.924 25.969 A 33.821 33.821 0 0 1 141.9 24.813 A 51.719 51.719 0 0 0 141.9 24.645 Q 141.893 22.433 141.7 17.813 L 141.7 15.913 A 7.744 7.744 0 0 1 141.702 15.763 Q 141.709 15.389 141.75 14.813 Q 141.8 14.113 141.9 13.813 L 141.9 10.013 A 309.722 309.722 0 0 0 141.901 9.993 Q 142.25 4.146 142.141 1.733 A 13.809 13.809 0 0 0 142.1 1.113 A 1.085 1.085 0 0 0 142.098 1.041 Q 142.066 0.557 141.592 0.359 A 1.615 1.615 0 0 0 141.25 0.263 A 1.647 1.647 0 0 0 141.128 0.246 Q 140.552 0.188 140.37 0.63 A 1.104 1.104 0 0 0 140.3 0.913 A 12.4 12.4 0 0 0 140.216 1.552 Q 139.948 4.058 140.3 8.813 A 99.69 99.69 0 0 1 140.306 8.941 Q 140.353 9.902 140.377 10.769 A 61.046 61.046 0 0 1 140.4 12.413 L 140.4 13.163 A 5.659 5.659 0 0 0 140.401 13.267 Q 140.41 13.742 140.5 14.013 Q 140.5 14.313 140.55 14.913 A 18.458 18.458 0 0 1 140.577 15.276 Q 140.588 15.448 140.594 15.599 A 8.276 8.276 0 0 1 140.6 15.913 A 40.429 40.429 0 0 1 140.6 15.977 Q 140.599 16.465 140.587 17.01 A 67.374 67.374 0 0 1 140.55 18.163 Q 140.5 19.413 140.45 20.863 A 129.732 129.732 0 0 0 140.429 21.506 Q 140.4 22.5 140.4 23.113 Q 140.3 26.513 140.7 30.313 A 146.99 146.99 0 0 1 140.754 30.877 Q 141.135 34.924 141.037 36.438 A 4.948 4.948 0 0 1 141 36.813 A 137.459 137.459 0 0 0 140.784 38.784 Q 140.5 41.58 140.5 43.013 Q 140.4 47.713 140.5 49.613 Q 140.85 55.563 140.894 56.383 A 5.861 5.861 0 0 1 140.9 56.513 Q 140.9 57.038 140.872 57.956 A 129.255 129.255 0 0 1 140.85 58.613 Q 140.812 59.668 140.803 60.24 A 20.272 20.272 0 0 0 140.8 60.563 A 15.528 15.528 0 0 0 140.802 60.783 Q 140.812 61.427 140.866 63.338 A 1117.453 1117.453 0 0 0 140.9 64.513 L 140.9 67.713 A 19.708 19.708 0 0 0 140.9 67.774 Q 140.905 69.205 141.118 69.957 A 2.053 2.053 0 0 0 141.3 70.413 A 0.988 0.988 0 0 0 141.301 70.414 Q 141.501 70.912 142.05 70.663 A 1.413 1.413 0 0 0 142.085 70.646 Q 142.597 70.396 142.5 69.913 A 445.341 445.341 0 0 1 142.476 69.649 Q 142.411 68.927 142.402 68.791 A 0.571 0.571 0 0 1 142.4 68.763 L 142.4 67.613 Q 142.5 67.513 142.45 66.263 A 323.69 323.69 0 0 1 142.437 65.92 Q 142.4 64.983 142.4 64.813 L 142.4 62.613 Q 142.4 61.213 142.45 60.063 Q 142.5 58.913 142.5 57.813 A 85.242 85.242 0 0 0 142.533 55.446 Q 142.533 55.373 142.533 55.3 Z M 146.7 21.413 L 146.8 35.313 Q 147.168 40.009 147.198 42.162 A 25.987 25.987 0 0 1 147.2 42.513 Q 147.4 54.713 147.6 56.413 Q 147.8 57.013 147.65 59.863 A 409.501 409.501 0 0 0 147.599 60.852 Q 147.508 62.669 147.501 63.226 A 6.74 6.74 0 0 0 147.5 63.313 A 39.779 39.779 0 0 0 147.506 63.981 Q 147.519 64.742 147.559 65.795 A 170.833 170.833 0 0 0 147.6 66.813 A 180.914 180.914 0 0 1 147.644 67.888 Q 147.699 69.351 147.7 70.172 A 24.97 24.97 0 0 1 147.7 70.213 A 0.717 0.717 0 0 1 147.649 70.489 Q 147.578 70.659 147.411 70.774 A 0.874 0.874 0 0 1 147.35 70.813 A 0.791 0.791 0 0 1 147.175 70.887 Q 146.913 70.963 146.65 70.813 Q 146.3 70.613 146.3 70.213 Q 146.3 65.513 145.9 62.413 A 38.033 38.033 0 0 1 145.843 61.281 Q 145.8 60.105 145.8 58.563 L 145.8 54.713 Q 145.7 52.813 145.75 47.863 Q 145.8 42.913 145.6 41.013 Q 145.506 40.541 145.189 36.951 A 533.298 533.298 0 0 1 145.15 36.513 Q 144.822 32.763 144.845 32.133 A 0.985 0.985 0 0 1 144.85 32.063 A 2.979 2.979 0 0 0 144.862 31.893 Q 144.898 31.151 144.9 27.962 A 623.534 623.534 0 0 0 144.9 27.513 A 242.703 242.703 0 0 0 145.044 24.65 Q 145.221 20.686 145.357 15.31 A 798.818 798.818 0 0 0 145.4 13.513 L 145.4 10.163 Q 145.4 7.129 145.574 6.927 A 0.035 0.035 0 0 1 145.6 6.913 Q 146.029 3.741 145.943 2.039 A 7.942 7.942 0 0 0 145.9 1.513 Q 145.805 1.038 146.295 0.924 A 1.134 1.134 0 0 1 146.35 0.913 A 1.252 1.252 0 0 1 146.484 0.895 Q 146.938 0.863 147.2 1.213 Q 147.583 1.786 147.691 2.634 A 4.857 4.857 0 0 1 147.7 2.713 A 13.146 13.146 0 0 1 147.74 3.129 Q 147.788 3.735 147.75 4.113 A 27.344 27.344 0 0 1 147.719 4.406 Q 147.663 4.913 147.55 5.813 A 63.01 63.01 0 0 0 147.499 6.231 Q 147.406 7.019 147.4 7.281 A 1.479 1.479 0 0 0 147.4 7.313 Q 147.209 8.649 147.201 10.85 A 53.718 53.718 0 0 0 147.2 11.063 L 147.2 14.813 Q 147.108 15.641 146.974 17.615 A 237.043 237.043 0 0 0 146.95 17.963 Q 146.8 20.213 146.7 21.413 Z M 191 50.313 L 190.9 36.413 A 578.923 578.923 0 0 1 190.719 34.044 Q 190.475 30.763 190.4 29.113 A 3243.256 3243.256 0 0 0 190.329 24.937 Q 190.181 16.675 190.1 15.213 A 1.052 1.052 0 0 1 190.047 15.005 Q 189.923 14.272 190.05 11.813 A 511.625 511.625 0 0 0 190.101 10.809 Q 190.182 9.176 190.197 8.609 A 8.066 8.066 0 0 0 190.2 8.413 A 39.779 39.779 0 0 0 190.194 7.744 Q 190.181 6.983 190.141 5.93 A 170.833 170.833 0 0 0 190.1 4.913 A 180.914 180.914 0 0 1 190.056 3.838 Q 190.001 2.374 190 1.553 A 24.97 24.97 0 0 1 190 1.513 A 0.717 0.717 0 0 1 190.051 1.236 Q 190.122 1.066 190.289 0.951 A 0.874 0.874 0 0 1 190.35 0.913 A 0.791 0.791 0 0 1 190.525 0.838 Q 190.787 0.762 191.05 0.913 Q 191.4 1.113 191.4 1.513 Q 191.3 6.213 191.7 9.313 Q 191.9 10.813 191.85 13.163 Q 191.808 15.145 191.872 16.523 A 24.905 24.905 0 0 0 191.9 17.013 Q 192 18.913 191.95 23.863 Q 191.9 28.813 192.1 30.713 Q 192.1 31.09 192.412 34.719 A 888.996 888.996 0 0 0 192.45 35.163 A 296.782 296.782 0 0 1 192.554 36.395 Q 192.774 39.07 192.755 39.592 A 0.986 0.986 0 0 1 192.75 39.663 Q 192.706 40.058 192.778 43.189 A 442.065 442.065 0 0 0 192.8 44.113 Q 192.4 49.513 192.2 58.213 L 192.25 61.513 Q 192.294 64.379 192.148 64.756 A 0.07 0.07 0 0 1 192.1 64.813 Q 191.672 67.984 191.757 69.686 A 7.942 7.942 0 0 0 191.8 70.213 Q 191.8 70.595 191.479 70.743 A 0.949 0.949 0 0 1 191.25 70.813 Q 190.709 70.911 190.507 70.526 A 0.734 0.734 0 0 1 190.5 70.513 A 3.209 3.209 0 0 1 190.154 69.814 Q 190.023 69.448 189.95 69.013 A 9.97 9.97 0 0 1 189.882 68.539 Q 189.814 67.959 189.85 67.563 Q 189.898 67.033 190.085 65.901 A 69.917 69.917 0 0 1 190.1 65.813 Q 190.3 64.613 190.3 64.413 Q 190.396 63.076 190.4 60.875 A 107.434 107.434 0 0 0 190.4 60.663 A 94.479 94.479 0 0 1 190.406 59.547 Q 190.421 58.272 190.473 57.343 A 27.159 27.159 0 0 1 190.5 56.913 Q 190.596 55.95 190.739 53.875 A 295.977 295.977 0 0 0 190.75 53.713 Q 190.9 51.513 191 50.313 Z M 151.5 14.713 L 151.4 32.513 Q 151.5 34.313 151.4 36.713 L 151.4 42.913 A 348.641 348.641 0 0 1 151.439 44.008 Q 151.486 45.387 151.497 46.123 A 26.67 26.67 0 0 1 151.5 46.513 A 38.318 38.318 0 0 1 151.538 47.579 Q 151.575 49.277 151.501 51.588 A 112.556 112.556 0 0 1 151.5 51.613 Q 151.5 53.245 151.574 54.546 A 34.436 34.436 0 0 0 151.6 54.963 A 21.035 21.035 0 0 1 151.643 55.913 Q 151.669 57.006 151.6 58.313 A 22.79 22.79 0 0 0 151.508 59.8 Q 151.469 61.179 151.62 62.389 A 12.765 12.765 0 0 0 151.9 63.913 Q 152.1 64.713 152.2 66.613 A 45.148 45.148 0 0 0 152.202 67.097 Q 152.209 67.738 152.236 68.04 A 2.383 2.383 0 0 0 152.25 68.163 A 1.653 1.653 0 0 1 152.264 68.317 Q 152.279 68.627 152.2 69.063 A 13.763 13.763 0 0 0 152.159 69.301 Q 152.11 69.596 152.102 69.752 A 1.116 1.116 0 0 0 152.1 69.813 A 1.235 1.235 0 0 1 152.065 70.122 Q 151.937 70.613 151.35 70.613 A 1.011 1.011 0 0 1 151.049 70.571 Q 150.719 70.468 150.632 70.107 A 1.255 1.255 0 0 1 150.6 69.813 Q 150.6 69.619 150.647 68.908 A 82.408 82.408 0 0 1 150.65 68.863 Q 150.698 68.149 150.61 67.843 A 0.767 0.767 0 0 0 150.6 67.813 Q 150.511 67.007 150.501 66.362 A 10.25 10.25 0 0 1 150.5 66.213 A 55.198 55.198 0 0 0 150.452 65.239 Q 150.373 63.919 150.253 63.262 A 4.011 4.011 0 0 0 150.2 63.013 Q 149.913 61.863 150.084 57.228 A 137.15 137.15 0 0 1 150.1 56.813 Q 150.1 55.97 150.012 54.571 A 88.86 88.86 0 0 0 149.95 53.663 Q 149.8 51.613 149.8 50.613 A 2.955 2.955 0 0 1 149.802 50.534 Q 149.813 50.163 149.9 48.413 Q 149.977 46.575 149.995 45.324 A 49.821 49.821 0 0 0 150 44.613 A 482.968 482.968 0 0 1 149.942 42.602 Q 149.817 37.881 149.9 36.713 Q 150.1 33.713 150.05 32.713 Q 150.009 31.892 149.833 29.859 A 337.525 337.525 0 0 0 149.75 28.913 A 41.732 41.732 0 0 1 149.628 27.036 Q 149.531 24.831 149.6 22.013 A 39.303 39.303 0 0 0 149.598 21.625 Q 149.591 20.984 149.567 19.734 A 645.606 645.606 0 0 0 149.55 18.913 Q 149.5 16.513 149.6 15.813 Q 149.798 12.947 150.191 8.715 A 530.509 530.509 0 0 1 150.2 8.613 Q 150.353 7.081 150.389 5.843 A 25.242 25.242 0 0 0 150.4 5.113 Q 150.573 2.689 150.746 1.614 A 8.184 8.184 0 0 1 150.8 1.313 Q 150.9 0.913 151.5 0.863 A 1.315 1.315 0 0 1 151.573 0.858 Q 152.052 0.845 152.176 1.222 A 0.77 0.77 0 0 1 152.2 1.313 A 10.061 10.061 0 0 1 152.261 1.921 Q 152.363 3.338 152.2 5.613 Q 152.1 7.913 152 9.613 A 318.895 318.895 0 0 0 151.83 11.102 Q 151.545 13.664 151.506 14.496 A 4.832 4.832 0 0 0 151.5 14.713 Z M 188.3 54.463 A 42.053 42.053 0 0 0 188.296 54.425 Q 188.198 53.403 188.1 52.913 A 9.799 9.799 0 0 1 188.079 52.641 Q 188.026 51.795 188.07 50.465 A 50.568 50.568 0 0 1 188.1 49.713 Q 188.1 47.055 188 44.958 A 54.694 54.694 0 0 0 187.85 42.713 A 154.871 154.871 0 0 1 187.767 41.749 Q 187.645 40.277 187.612 39.467 A 12.798 12.798 0 0 1 187.6 38.963 A 15.401 15.401 0 0 1 187.607 38.546 Q 187.629 37.753 187.722 36.227 A 226.144 226.144 0 0 1 187.8 35.013 Q 187.9 33.613 187.7 27.113 Q 187.625 26.063 187.719 24.45 A 45.6 45.6 0 0 1 187.8 23.313 Q 187.888 21.563 187.899 21.191 A 2.955 2.955 0 0 0 187.9 21.113 Q 187.9 20.613 187.861 19.976 A 32.117 32.117 0 0 0 187.8 19.163 Q 187.7 18.013 187.65 16.913 Q 187.6 15.813 187.6 14.913 Q 187.683 10.663 187.558 9.19 A 5.263 5.263 0 0 0 187.5 8.713 A 4.011 4.011 0 0 1 187.447 8.463 Q 187.327 7.806 187.249 6.486 A 55.198 55.198 0 0 1 187.2 5.513 L 187 3.913 A 4.279 4.279 0 0 1 187 3.862 Q 187.003 3.636 187.028 3.207 A 44.796 44.796 0 0 1 187.05 2.863 A 82.408 82.408 0 0 0 187.053 2.817 Q 187.1 2.106 187.1 1.913 A 1.33 1.33 0 0 0 187.03 1.613 Q 186.904 1.276 186.594 1.166 A 1.026 1.026 0 0 0 186.25 1.113 Q 185.663 1.113 185.535 1.603 A 1.235 1.235 0 0 0 185.5 1.913 Q 185.5 2.066 185.471 2.424 A 26.622 26.622 0 0 1 185.45 2.663 Q 185.4 3.213 185.4 3.563 Q 185.4 3.836 185.461 4.628 A 78.139 78.139 0 0 0 185.5 5.113 Q 185.572 6.406 185.695 7.235 A 8.385 8.385 0 0 0 185.8 7.813 A 12.736 12.736 0 0 1 185.854 8.076 Q 186.198 9.836 186.152 12.155 A 31.186 31.186 0 0 1 186.1 13.413 Q 185.949 14.847 185.969 15.997 A 13.31 13.31 0 0 0 186 16.713 A 33.459 33.459 0 0 1 186.053 17.646 Q 186.074 18.142 186.086 18.697 A 67.198 67.198 0 0 1 186.1 20.113 L 186.1 25.213 A 12.807 12.807 0 0 0 186.1 25.311 Q 186.105 25.933 186.166 27.703 A 478.353 478.353 0 0 0 186.2 28.663 A 235.516 235.516 0 0 1 186.241 29.883 Q 186.281 31.15 186.294 32.084 A 60.447 60.447 0 0 1 186.3 32.913 A 182.69 182.69 0 0 0 186.247 34.558 Q 186.157 37.86 186.239 39.87 A 26.965 26.965 0 0 0 186.3 40.913 Q 186.65 45.025 186.617 47.377 A 23.029 23.029 0 0 1 186.6 48.013 L 186.6 51.413 Q 186.6 51.619 186.576 51.92 A 13.885 13.885 0 0 1 186.55 52.213 Q 186.512 52.597 186.444 52.745 A 0.233 0.233 0 0 1 186.4 52.813 A 5.34 5.34 0 0 0 186.4 52.851 Q 186.403 53.223 186.456 53.9 A 43.492 43.492 0 0 0 186.5 54.413 A 325.95 325.95 0 0 1 186.525 54.776 Q 186.665 56.84 186.693 57.673 A 10.502 10.502 0 0 1 186.7 58.013 A 5.005 5.005 0 0 1 186.696 58.181 Q 186.673 58.841 186.502 61.034 A 443.747 443.747 0 0 1 186.4 62.313 A 33.91 33.91 0 0 0 186.312 63.095 Q 186.243 63.775 186.189 64.547 A 65.248 65.248 0 0 0 186.1 66.113 A 37.824 37.824 0 0 0 186.079 66.423 Q 185.956 68.379 186.09 69.612 A 6.986 6.986 0 0 0 186.2 70.313 A 0.851 0.851 0 0 0 186.227 70.415 Q 186.323 70.701 186.603 70.781 A 0.899 0.899 0 0 0 186.85 70.813 A 0.943 0.943 0 0 0 187.06 70.791 Q 187.421 70.708 187.5 70.313 A 12.045 12.045 0 0 0 187.603 69.767 Q 187.827 68.419 187.95 66.163 A 158.183 158.183 0 0 1 187.966 65.877 Q 188.08 63.851 188.164 63.357 A 0.62 0.62 0 0 1 188.2 63.213 A 124.768 124.768 0 0 0 188.31 61.692 Q 188.524 58.46 188.446 56.689 A 13.47 13.47 0 0 0 188.4 56.013 A 5.16 5.16 0 0 0 188.4 55.994 Q 188.399 55.621 188.344 54.953 A 38.194 38.194 0 0 0 188.3 54.463 Z M 196.7 59.313 Q 196.7 60.913 196.8 62.813 Q 197.151 67.027 196.886 69.237 A 9.679 9.679 0 0 1 196.8 69.813 Q 196.7 70.513 195.9 70.413 A 1.245 1.245 0 0 1 195.515 70.305 Q 195.073 70.094 195 69.513 A 14.656 14.656 0 0 1 194.983 69.069 Q 194.936 67.19 195.166 62.41 A 357.189 357.189 0 0 1 195.2 61.713 A 6.046 6.046 0 0 1 195.202 61.631 Q 195.211 61.22 195.276 58.798 A 8337.881 8337.881 0 0 1 195.3 57.913 Q 195.3 57.683 195.329 57.395 A 7.954 7.954 0 0 1 195.35 57.213 A 6.611 6.611 0 0 0 195.392 56.755 A 5.345 5.345 0 0 0 195.4 56.463 L 195.4 55.813 L 195.4 53.913 Q 195.204 49.2 195.2 46.897 A 54.578 54.578 0 0 1 195.2 46.813 Q 195.3 44.813 194.8 39.713 Q 194.645 37.543 194.79 35.012 A 49.085 49.085 0 0 1 194.9 33.513 A 11.721 11.721 0 0 0 194.978 32.747 Q 195.071 31.491 195.093 29.09 A 173.493 173.493 0 0 0 195.1 27.513 A 5.486 5.486 0 0 0 195.094 27.319 Q 195.05 26.313 194.7 20.713 Q 194.6 17.513 194.6 13.913 Q 194.7 12.813 194.7 11.663 L 194.7 9.063 L 194.7 6.813 Q 194.7 6.642 194.664 5.741 A 286.861 286.861 0 0 0 194.65 5.413 Q 194.602 4.253 194.693 4.027 A 0.207 0.207 0 0 1 194.7 4.013 Q 194.79 2.484 194.678 1.926 A 1.259 1.259 0 0 0 194.65 1.813 Q 194.509 1.342 194.988 1.093 A 1.305 1.305 0 0 1 195.05 1.063 A 1.057 1.057 0 0 1 195.192 1.009 Q 195.64 0.879 195.9 1.313 A 2.092 2.092 0 0 1 196.084 1.769 Q 196.229 2.272 196.277 3.067 A 14.231 14.231 0 0 1 196.3 3.913 Q 196.214 5.894 196.276 6.911 A 7.91 7.91 0 0 0 196.3 7.213 L 196.3 11.163 Q 196.3 11.669 196.258 12.854 A 167.018 167.018 0 0 1 196.25 13.063 Q 196.2 14.413 196.2 15.213 Q 196.2 15.299 196.503 20.456 A 12933.475 12933.475 0 0 0 196.6 22.113 Q 196.7 24.013 196.6 28.713 Q 196.6 30.145 196.316 32.941 A 137.459 137.459 0 0 1 196.1 34.913 A 4.472 4.472 0 0 0 196.066 35.263 Q 195.966 36.87 196.5 41.413 Q 196.9 45.213 196.8 48.513 Q 196.8 49.113 196.65 51.763 Q 196.526 53.947 196.505 55.282 A 32.742 32.742 0 0 0 196.5 55.813 A 2.668 2.668 0 0 0 196.508 56.005 Q 196.522 56.195 196.56 56.458 A 12.544 12.544 0 0 0 196.6 56.713 A 12.284 12.284 0 0 1 196.644 56.994 Q 196.7 57.388 196.7 57.613 L 196.7 58.513 L 196.7 59.313 Z M 154.7 6.613 L 154.7 6.513 A 0.879 0.879 0 0 0 154.741 6.551 Q 154.811 6.613 154.85 6.613 L 155 6.613 A 0.144 0.144 0 0 0 155.04 6.608 Q 155.084 6.595 155.096 6.55 A 0.147 0.147 0 0 0 155.1 6.513 L 155.6 6.513 L 156 6.513 Q 156.483 6.416 156.686 6.413 A 0.865 0.865 0 0 1 156.7 6.413 Q 157.077 6.413 157.823 6.526 A 25.46 25.46 0 0 1 158.35 6.613 A 11.304 11.304 0 0 0 158.848 6.688 Q 159.638 6.79 160.1 6.713 A 9.311 9.311 0 0 1 160.71 6.693 Q 161.888 6.691 163.337 6.962 A 20.61 20.61 0 0 1 163.6 7.013 Q 165.405 7.423 166.47 7.766 A 12.296 12.296 0 0 1 166.9 7.913 A 11.369 11.369 0 0 1 169.491 9.391 Q 170.617 10.236 171.7 11.413 A 12.719 12.719 0 0 1 173.758 14.329 A 16.994 16.994 0 0 1 174.8 16.813 Q 175.6 19.313 175.1 23.113 Q 174.564 27.312 174.028 29.036 A 6.957 6.957 0 0 1 173.9 29.413 A 11.737 11.737 0 0 1 171.429 33.107 A 13.922 13.922 0 0 1 170.8 33.713 A 9.612 9.612 0 0 1 169.677 34.66 Q 168.44 35.564 166.54 36.504 A 36.692 36.692 0 0 1 165.9 36.813 Q 162.8 38.113 159.6 39.213 A 26.789 26.789 0 0 1 157.075 39.948 Q 155.072 40.42 153.405 40.42 A 11.351 11.351 0 0 1 153 40.413 Q 152.505 40.413 152.255 40.02 A 1.039 1.039 0 0 1 152.25 40.013 A 0.836 0.836 0 0 1 152.151 39.79 Q 152.068 39.489 152.25 39.163 A 0.948 0.948 0 0 1 152.457 38.902 Q 152.676 38.713 153 38.713 Q 155 38.713 156.6 38.413 Q 156.978 38.318 159.671 37.511 A 952.21 952.21 0 0 0 160 37.413 A 30.104 30.104 0 0 0 162.33 36.658 Q 163.559 36.208 164.94 35.606 A 66.098 66.098 0 0 0 166.9 34.713 A 15.355 15.355 0 0 0 168.591 33.84 Q 169.433 33.333 170.073 32.768 A 7.198 7.198 0 0 0 170.9 31.913 A 11.751 11.751 0 0 0 172.796 28.514 A 14.728 14.728 0 0 0 173.3 26.813 Q 173.394 26.251 173.662 24.114 A 437.796 437.796 0 0 0 173.7 23.813 A 982.903 982.903 0 0 1 173.822 22.883 Q 173.975 21.716 174.057 21.122 A 61.947 61.947 0 0 1 174.1 20.813 A 8.742 8.742 0 0 0 174.106 20.5 Q 174.106 17.925 172.601 15.099 A 17.182 17.182 0 0 0 172.5 14.913 Q 171 12.413 168.6 10.613 A 8.609 8.609 0 0 0 167.255 9.784 Q 165.724 9.01 163.4 8.413 Q 161.317 7.917 160.415 7.913 A 3.281 3.281 0 0 0 160.4 7.913 Q 159.569 7.913 158.115 7.705 A 41.836 41.836 0 0 1 157.5 7.613 Q 157.1 7.513 155.5 7.613 Q 154.4 7.813 154.05 7.413 A 0.919 0.919 0 0 1 153.958 7.289 Q 153.764 6.973 154.023 6.691 A 0.874 0.874 0 0 1 154.05 6.663 A 0.793 0.793 0 0 1 154.175 6.559 Q 154.451 6.379 154.756 6.581 A 0.95 0.95 0 0 1 154.8 6.613 L 154.7 6.613 Z M 286 53.513 L 285.9 41.813 Q 285.532 37.945 285.503 36.112 A 18.891 18.891 0 0 1 285.5 35.813 L 285.5 32.163 A 110.916 110.916 0 0 0 285.486 30.348 Q 285.471 29.455 285.441 28.668 A 56.716 56.716 0 0 0 285.4 27.763 Q 285.3 25.913 285.1 24.113 A 30.839 30.839 0 0 1 285.071 23.699 Q 285.008 22.713 285.05 22.213 Q 285.098 21.635 285.146 20.409 A 122.058 122.058 0 0 0 285.15 20.313 Q 285.198 19.061 285.2 18.458 A 15.308 15.308 0 0 0 285.2 18.413 A 9.26 9.26 0 0 0 285.23 17.946 Q 285.271 16.929 285.15 15.363 Q 285.006 13.485 285 12.581 A 11.526 11.526 0 0 1 285 12.513 A 1.093 1.093 0 0 1 285.023 12.278 Q 285.09 11.974 285.35 11.863 Q 285.7 11.713 286.1 11.863 Q 286.414 11.98 286.482 12.314 A 1.002 1.002 0 0 1 286.5 12.513 Q 286.4 16.213 286.8 19.213 Q 287 20.413 286.95 22.363 Q 286.9 24.313 286.9 25.513 Q 287 27.113 286.95 31.313 Q 286.91 34.686 287.031 36.317 A 12.149 12.149 0 0 0 287.1 37.013 A 1.569 1.569 0 0 1 287.142 37.209 Q 287.26 37.905 287.55 40.763 A 237.419 237.419 0 0 1 287.654 41.81 Q 287.874 44.078 287.855 44.463 A 0.456 0.456 0 0 1 287.85 44.513 A 1.382 1.382 0 0 0 287.838 44.636 Q 287.8 45.238 287.8 48.213 Q 287.5 53.713 287.3 60.213 Q 287.3 60.672 287.329 61.424 A 75.428 75.428 0 0 0 287.35 61.913 Q 287.393 62.858 287.362 63.655 A 15.324 15.324 0 0 1 287.35 63.913 A 26.174 26.174 0 0 1 287.258 65.103 A 22.12 22.12 0 0 1 287.2 65.613 A 55.256 55.256 0 0 0 287.018 66.868 Q 286.744 68.928 286.79 70.03 A 6.082 6.082 0 0 0 286.8 70.213 Q 286.895 70.687 286.405 70.801 A 1.134 1.134 0 0 1 286.35 70.813 Q 285.809 70.911 285.607 70.526 A 0.734 0.734 0 0 1 285.6 70.513 A 2.232 2.232 0 0 1 285.19 69.959 A 2.012 2.012 0 0 1 285.05 69.613 A 2.703 2.703 0 0 1 284.943 68.992 Q 284.929 68.761 284.95 68.513 Q 285 67.913 285 67.513 A 3.024 3.024 0 0 1 285.012 67.26 Q 285.042 66.902 285.15 66.363 A 15.74 15.74 0 0 0 285.214 66.026 Q 285.296 65.562 285.3 65.334 A 1.295 1.295 0 0 0 285.3 65.313 A 9.858 9.858 0 0 0 285.406 64.542 Q 285.5 63.603 285.5 62.263 L 285.5 59.113 Q 285.6 58.413 285.75 56.463 Q 285.9 54.513 286 53.513 Z M 281.3 59.113 L 281.3 44.213 Q 281.219 42.913 281.27 41.282 A 46.886 46.886 0 0 1 281.3 40.513 L 281.3 35.513 A 370.663 370.663 0 0 1 281.266 34.676 Q 281.205 33.133 281.2 32.597 A 9.468 9.468 0 0 1 281.2 32.513 Q 281.1 30.713 281.2 28.113 A 13.926 13.926 0 0 0 281.197 27.831 Q 281.181 27.1 281.1 25.313 Q 281 23.113 281.1 22.613 A 19.991 19.991 0 0 0 281.197 21.344 Q 281.283 19.344 280.9 17.813 Q 280.7 17.113 280.6 15.513 A 65.109 65.109 0 0 1 280.566 15.164 Q 280.504 14.507 280.5 14.288 A 1.539 1.539 0 0 1 280.5 14.263 L 280.5 13.763 Q 280.5 13.513 280.55 13.263 A 2.842 2.842 0 0 0 280.584 13.053 Q 280.6 12.925 280.6 12.813 A 1.235 1.235 0 0 1 280.635 12.503 Q 280.763 12.013 281.35 12.013 A 1.011 1.011 0 0 1 281.651 12.054 Q 281.981 12.157 282.068 12.518 A 1.255 1.255 0 0 1 282.1 12.813 L 282.1 13.663 L 282.1 14.613 Q 282.2 15.213 282.2 15.813 A 22.659 22.659 0 0 0 282.282 16.869 Q 282.394 17.956 282.6 18.713 Q 282.8 19.513 282.8 20.313 A 32.391 32.391 0 0 1 282.793 20.962 Q 282.787 21.253 282.776 21.578 A 65.808 65.808 0 0 1 282.75 22.263 A 25.287 25.287 0 0 1 282.724 22.76 Q 282.685 23.375 282.626 23.691 A 2.054 2.054 0 0 1 282.6 23.813 Q 282.6 24.713 282.75 26.463 Q 282.894 28.147 282.9 28.951 A 9.117 9.117 0 0 1 282.9 29.013 A 13.436 13.436 0 0 1 282.89 29.499 Q 282.869 30.088 282.8 30.913 Q 282.7 32.613 282.8 34.213 Q 282.9 39.313 282.8 40.913 Q 282.7 43.313 282.7 44.213 A 5.36 5.36 0 0 0 282.711 44.508 Q 282.756 45.3 283 47.413 A 28.839 28.839 0 0 1 283.081 48.594 Q 283.175 50.488 283.1 53.113 A 29.478 29.478 0 0 0 283.114 53.994 Q 283.138 54.775 283.2 55.713 A 2.078 2.078 0 0 1 283.22 55.883 Q 283.275 56.55 283.1 58.213 A 43.701 43.701 0 0 1 282.984 60.016 Q 282.906 60.95 282.785 62.024 A 104.43 104.43 0 0 1 282.5 64.313 Q 282.4 65.913 282.3 67.213 Q 282.1 69.613 281.9 70.313 Q 281.821 70.708 281.46 70.791 A 0.943 0.943 0 0 1 281.25 70.813 A 0.899 0.899 0 0 1 281.003 70.781 Q 280.723 70.701 280.627 70.415 A 0.851 0.851 0 0 1 280.6 70.313 Q 280.317 69.18 280.479 67.068 A 25.377 25.377 0 0 1 280.5 66.813 A 51.573 51.573 0 0 1 280.616 65.119 Q 280.684 64.323 280.774 63.613 A 30.908 30.908 0 0 1 280.8 63.413 A 937.262 937.262 0 0 1 280.94 62.164 Q 281.169 60.122 281.265 59.375 A 19.046 19.046 0 0 1 281.3 59.113 Z M 292.3 61.013 Q 292.3 62.413 292.4 63.813 Q 292.573 65.716 292.596 66.572 A 8.916 8.916 0 0 1 292.6 66.813 Q 292.6 67.469 292.465 69.135 A 128.144 128.144 0 0 1 292.4 69.913 Q 292.307 70.653 291.615 70.58 A 1.463 1.463 0 0 1 291.5 70.563 A 1.304 1.304 0 0 1 291.096 70.421 Q 290.744 70.223 290.635 69.798 A 1.482 1.482 0 0 1 290.6 69.613 A 6.059 6.059 0 0 1 290.585 69.351 Q 290.537 68.121 290.727 64.39 A 298.828 298.828 0 0 1 290.8 63.013 L 290.8 61.363 A 21.206 21.206 0 0 1 290.806 60.828 Q 290.825 60.088 290.9 59.713 Q 290.9 59.548 290.934 59.149 A 28.191 28.191 0 0 1 290.95 58.963 Q 291 58.413 291 58.113 L 291 56.413 Q 290.821 53.192 290.802 51.012 A 57.761 57.761 0 0 1 290.8 50.513 A 24.111 24.111 0 0 0 290.776 49.518 Q 290.702 47.754 290.4 44.513 Q 290.2 42.313 290.5 39.313 A 8.678 8.678 0 0 0 290.578 38.658 Q 290.671 37.587 290.693 35.55 A 124.834 124.834 0 0 0 290.7 34.213 Q 290.624 33.37 290.518 31.971 A 366.989 366.989 0 0 1 290.45 31.063 Q 290.3 29.013 290.3 28.613 A 176.537 176.537 0 0 1 290.202 23.516 A 158.92 158.92 0 0 1 290.2 22.813 A 1.321 1.321 0 0 0 290.224 22.633 Q 290.289 21.855 290.299 18.214 A 504.857 504.857 0 0 0 290.3 16.913 A 1.654 1.654 0 0 0 290.299 16.872 Q 290.294 16.688 290.256 15.833 A 498.024 498.024 0 0 0 290.25 15.713 Q 290.2 14.613 290.3 14.513 A 12.902 12.902 0 0 0 290.32 14.202 Q 290.368 13.305 290.244 12.921 A 0.779 0.779 0 0 0 290.2 12.813 A 1.15 1.15 0 0 1 290.187 12.706 Q 290.157 12.287 290.486 12.089 A 0.944 0.944 0 0 1 290.65 12.013 A 1.22 1.22 0 0 1 290.803 11.968 Q 291.243 11.87 291.5 12.213 A 1.974 1.974 0 0 1 291.682 12.666 Q 291.873 13.353 291.8 14.513 L 291.8 17.213 A 1369.74 1369.74 0 0 1 291.824 17.897 Q 291.9 20.15 291.9 20.413 Q 291.9 20.913 291.85 21.513 Q 291.8 22.113 291.8 22.713 L 291.8 23.813 A 18.963 18.963 0 0 0 291.767 24.779 Q 291.761 25.551 291.824 26.255 A 12.544 12.544 0 0 0 291.9 26.913 Q 291.9 27.313 292.05 28.213 Q 292.174 28.954 292.195 29.424 A 4.087 4.087 0 0 1 292.2 29.613 Q 292.3 31.313 292.2 35.213 Q 292.2 37.341 291.772 39.983 A 43.194 43.194 0 0 1 291.7 40.413 A 3.665 3.665 0 0 0 291.663 40.731 Q 291.579 41.828 291.846 44.429 A 86.196 86.196 0 0 0 292 45.813 Q 292.4 49.113 292.4 51.913 Q 292.318 52.484 292.237 53.99 A 109.831 109.831 0 0 0 292.2 54.713 A 140.348 140.348 0 0 0 292.156 55.7 Q 292.118 56.654 292.106 57.342 A 32.716 32.716 0 0 0 292.1 57.913 A 2.554 2.554 0 0 0 292.109 58.113 Q 292.13 58.376 292.2 58.763 A 13.763 13.763 0 0 1 292.241 59.001 Q 292.29 59.296 292.298 59.452 A 1.116 1.116 0 0 1 292.3 59.513 L 292.3 60.363 L 292.3 61.013 Z M 153.097 35.828 A 1.067 1.067 0 0 0 153.2 35.813 A 8.366 8.366 0 0 0 153.596 35.762 Q 154.257 35.664 155.206 35.438 A 40.363 40.363 0 0 0 156.1 35.213 Q 157.644 34.806 158.263 34.664 A 8.889 8.889 0 0 1 158.5 34.613 A 39.413 39.413 0 0 0 160.058 34.269 Q 162.02 33.794 163.4 33.213 Q 167.6 31.213 169.9 27.113 Q 170.9 25.413 171.1 23.013 Q 171.33 20.786 171.148 19.384 A 6.021 6.021 0 0 0 171 18.613 A 8.779 8.779 0 0 0 170.682 17.531 A 6.842 6.842 0 0 0 169.1 15.013 A 8.886 8.886 0 0 0 167.738 13.9 A 10.732 10.732 0 0 0 165.6 12.813 A 21.983 21.983 0 0 0 160.687 11.394 Q 157.857 10.909 154.6 11.013 A 0.787 0.787 0 0 0 154.482 11.021 Q 154.088 11.081 154 11.563 Q 153.921 11.995 154.214 12.149 A 0.687 0.687 0 0 0 154.4 12.213 Q 154.925 12.288 156.013 12.306 A 45.896 45.896 0 0 0 156.8 12.313 A 7.188 7.188 0 0 1 156.949 12.314 Q 157.595 12.327 158.506 12.454 A 27.822 27.822 0 0 1 159.5 12.613 A 27.138 27.138 0 0 1 160.8 12.799 Q 161.592 12.933 162.274 13.105 A 12.415 12.415 0 0 1 163.6 13.513 Q 165.925 14.339 167.369 15.539 A 6.461 6.461 0 0 1 169.3 18.113 A 7.766 7.766 0 0 1 169.686 19.576 Q 169.814 20.353 169.814 21.223 A 12.401 12.401 0 0 1 169.8 21.813 Q 169.731 23.6 169.426 24.773 A 5.63 5.63 0 0 1 169.1 25.713 A 11.977 11.977 0 0 1 167.045 28.758 A 13.645 13.645 0 0 1 163.6 31.413 A 11.785 11.785 0 0 1 162.173 32.074 Q 161.398 32.377 160.463 32.646 A 29.904 29.904 0 0 1 158.6 33.113 Q 158.225 33.175 157.772 33.277 A 24.056 24.056 0 0 0 157.2 33.413 A 31.96 31.96 0 0 1 156.723 33.528 Q 156.228 33.644 155.85 33.713 A 55.053 55.053 0 0 0 155.487 33.78 Q 155.066 33.859 154.55 33.963 Q 153.8 34.113 153.2 34.113 A 1.18 1.18 0 0 0 153.062 34.149 A 0.901 0.901 0 0 0 152.5 34.663 Q 152.3 35.113 152.5 35.513 Q 152.679 35.87 153.097 35.828 Z M 271.11 3.293 A 28.631 28.631 0 0 0 272.2 3.313 Q 273 3.313 275.8 3.113 A 15.968 15.968 0 0 0 276.103 3.109 Q 276.864 3.095 278.1 3.013 A 224.307 224.307 0 0 0 278.196 3.006 Q 278.917 2.958 279.567 2.909 A 138.586 138.586 0 0 0 280.8 2.813 Q 282 2.713 283.1 2.813 Q 284.156 2.813 288.513 2.746 A 3046.719 3046.719 0 0 0 290.7 2.713 A 112.838 112.838 0 0 1 290.876 2.713 Q 293.187 2.716 298 2.813 A 14.443 14.443 0 0 1 298.051 2.813 Q 298.727 2.815 300.719 2.879 A 519.19 519.19 0 0 1 301.75 2.913 Q 304.7 3.013 306.3 3.013 A 0.995 0.995 0 0 0 306.422 3.005 Q 306.67 2.975 306.832 2.814 A 0.818 0.818 0 0 0 307 2.563 A 1.269 1.269 0 0 0 307.034 2.478 Q 307.128 2.218 307.088 1.958 A 1.156 1.156 0 0 0 307 1.663 A 0.976 0.976 0 0 0 306.958 1.579 Q 306.751 1.213 306.3 1.213 A 57.541 57.541 0 0 1 305.537 1.207 Q 304.63 1.195 303.431 1.156 A 199.33 199.33 0 0 1 302.2 1.113 A 587.476 587.476 0 0 0 301.493 1.086 Q 299.959 1.029 299.361 1.016 A 13.271 13.271 0 0 0 299.1 1.013 A 37.703 37.703 0 0 0 298.924 1.013 Q 297.211 1.021 294.075 1.181 A 311.635 311.635 0 0 0 291.7 1.313 Q 287.8 1.513 284.2 1.313 A 1888.32 1888.32 0 0 0 282.474 1.258 Q 277.74 1.113 276.8 1.113 A 6.468 6.468 0 0 1 276.459 1.159 Q 275.868 1.225 274.85 1.263 Q 273.922 1.297 273.254 1.355 A 14.845 14.845 0 0 0 272.7 1.413 A 53.618 53.618 0 0 0 272.501 1.413 Q 271.285 1.417 270.862 1.479 A 0.988 0.988 0 0 0 270.7 1.513 A 10.987 10.987 0 0 0 270.181 1.524 Q 269.532 1.555 269.101 1.667 A 2.07 2.07 0 0 0 268.7 1.813 A 0.847 0.847 0 0 0 268.656 1.844 Q 268.526 1.944 268.462 2.076 A 0.651 0.651 0 0 0 268.4 2.363 A 0.801 0.801 0 0 0 268.4 2.384 Q 268.409 2.719 268.7 2.913 A 1.788 1.788 0 0 0 268.921 3.003 Q 269.601 3.236 271.11 3.293 Z M 307.802 10.003 A 0.581 0.581 0 0 0 307.6 9.913 A 2.022 2.022 0 0 0 307.187 9.768 Q 306.241 9.533 304.1 9.613 L 300.4 9.613 L 296.6 9.613 L 292.7 9.613 A 9.492 9.492 0 0 0 292.472 9.617 Q 291.485 9.645 286.849 9.842 A 3828.139 3828.139 0 0 0 285.2 9.913 Q 283.8 9.913 281.2 9.963 A 596.829 596.829 0 0 1 280.798 9.97 Q 278.513 10.013 277.5 10.013 A 12.173 12.173 0 0 0 277.235 10.016 Q 276.773 10.026 276.113 10.069 A 52.878 52.878 0 0 0 275.5 10.113 Q 274.525 10.188 273.944 10.206 A 10.793 10.793 0 0 1 273.6 10.213 Q 273.513 10.213 272.124 10.136 A 976.374 976.374 0 0 1 271.7 10.113 A 20.519 20.519 0 0 0 271.606 10.108 Q 270.252 10.038 269.91 10.208 A 0.198 0.198 0 0 0 269.8 10.313 A 0.631 0.631 0 0 0 269.749 10.328 Q 269.429 10.437 269.445 10.845 A 1.129 1.129 0 0 0 269.45 10.913 Q 269.5 11.413 270 11.413 A 5.34 5.34 0 0 1 270.038 11.413 Q 270.411 11.415 271.088 11.469 A 43.492 43.492 0 0 1 271.6 11.513 A 43.567 43.567 0 0 1 271.681 11.52 Q 272.719 11.616 273.2 11.713 Q 273.769 11.713 275.724 11.58 A 253.469 253.469 0 0 0 276.7 11.513 L 280.5 11.513 A 104.981 104.981 0 0 0 281.606 11.507 Q 282.75 11.495 283.575 11.456 A 24.46 24.46 0 0 0 284.3 11.413 A 6.689 6.689 0 0 1 284.303 11.412 Q 285.507 11.313 291.8 11.413 Q 296.919 11.494 298.737 11.509 A 83.642 83.642 0 0 0 299.4 11.513 L 303.5 11.513 Q 306.183 11.434 307.185 11.168 A 1.782 1.782 0 0 0 307.6 11.013 A 0.713 0.713 0 0 0 307.662 10.994 Q 308 10.876 308 10.463 Q 308 10.146 307.802 10.003 Z M 269.901 7.827 A 0.96 0.96 0 0 0 270 7.813 A 8.621 8.621 0 0 0 270.163 7.81 Q 270.644 7.801 272.102 7.746 A 686.018 686.018 0 0 0 273 7.713 L 274.65 7.713 L 276.1 7.713 A 236.636 236.636 0 0 0 277.879 7.706 Q 280.614 7.686 282.238 7.598 A 26.105 26.105 0 0 0 283.4 7.513 Q 292.475 6.779 297.349 6.802 A 54.289 54.289 0 0 1 298.2 6.813 Q 302.8 6.913 306.4 6.813 A 1.1 1.1 0 0 0 306.539 6.804 Q 306.708 6.783 306.836 6.706 A 0.692 0.692 0 0 0 307.1 6.413 Q 307.233 6.147 307.189 5.903 A 0.75 0.75 0 0 0 307.1 5.663 A 0.659 0.659 0 0 0 306.664 5.342 A 1.11 1.11 0 0 0 306.4 5.313 A 61607.883 61607.883 0 0 1 304.646 5.337 Q 299.972 5.402 299.236 5.411 A 26.807 26.807 0 0 1 299.1 5.413 A 404.896 404.896 0 0 0 296.93 5.418 Q 293.591 5.436 291.6 5.513 Q 290.5 5.613 287.95 5.763 A 628.926 628.926 0 0 0 286.818 5.83 Q 285.072 5.936 284 6.013 L 281.5 6.013 A 21.787 21.787 0 0 1 281.283 6.011 Q 280.337 6.002 278.95 5.913 A 28.717 28.717 0 0 0 278.926 5.911 Q 277.392 5.813 276.4 5.913 A 5.092 5.092 0 0 1 276.357 5.912 Q 276.006 5.909 274.65 5.863 Q 273.442 5.821 273.032 5.883 A 0.824 0.824 0 0 0 272.9 5.913 Q 271.1 6.013 269.6 6.813 A 1.034 1.034 0 0 0 269.521 6.848 Q 269.168 7.025 269.263 7.362 A 0.754 0.754 0 0 0 269.3 7.463 Q 269.48 7.866 269.901 7.827 Z M 197.961 65.248 A 0.864 0.864 0 0 0 198.3 65.313 A 9.251 9.251 0 0 1 198.464 65.284 Q 199.176 65.168 200.191 65.108 A 34.463 34.463 0 0 1 201.3 65.063 A 376.542 376.542 0 0 1 201.952 65.046 Q 202.946 65.021 203.475 65.015 A 27.01 27.01 0 0 1 203.8 65.013 Q 206.8 64.813 209.8 65.013 Q 213 65.213 215.6 65.213 A 37.025 37.025 0 0 1 216.212 65.218 Q 216.94 65.23 217.906 65.269 A 131.117 131.117 0 0 1 218.9 65.313 Q 220.606 65.394 221.256 65.409 A 10.843 10.843 0 0 0 221.5 65.413 A 1.1 1.1 0 0 0 221.639 65.404 Q 221.808 65.383 221.936 65.306 A 0.692 0.692 0 0 0 222.2 65.013 A 1.045 1.045 0 0 0 222.241 64.919 Q 222.377 64.566 222.2 64.213 Q 222 63.813 221.5 63.813 A 7332.214 7332.214 0 0 1 220.175 63.836 Q 216.468 63.902 215.681 63.911 A 18.1 18.1 0 0 1 215.5 63.913 A 27.022 27.022 0 0 1 215.157 63.925 Q 212.847 63.991 209.5 63.713 A 192.283 192.283 0 0 0 208.755 63.673 Q 205.658 63.513 203.6 63.513 A 80.25 80.25 0 0 0 202.52 63.519 Q 199.129 63.565 198 63.913 Q 197.811 63.95 197.686 64.024 A 0.455 0.455 0 0 0 197.45 64.363 Q 197.4 64.713 197.65 65.013 A 0.815 0.815 0 0 0 197.961 65.248 Z M 222.4 69.163 A 0.943 0.943 0 0 0 222.378 68.953 Q 222.296 68.592 221.9 68.513 Q 221.413 68.431 219.671 68.416 A 99.996 99.996 0 0 0 218.8 68.413 Q 218.563 68.472 218.272 68.496 A 5.109 5.109 0 0 1 217.85 68.513 L 216.75 68.513 L 215.8 68.513 A 85.986 85.986 0 0 1 215.222 68.527 Q 213.363 68.568 211.738 68.52 A 47.887 47.887 0 0 1 209.6 68.413 A 21.26 21.26 0 0 0 209.047 68.394 Q 207.449 68.359 204.999 68.514 A 102.563 102.563 0 0 0 203.6 68.613 Q 202.6 68.613 201.75 68.563 A 9.106 9.106 0 0 0 201.679 68.559 Q 200.856 68.517 199.85 68.613 Q 199.292 68.666 198.805 68.747 A 10.357 10.357 0 0 0 198 68.913 Q 197.6 69.113 197.55 69.463 Q 197.5 69.813 197.75 70.113 Q 197.965 70.37 198.291 70.333 A 0.857 0.857 0 0 0 198.4 70.313 A 0.249 0.249 0 0 1 198.498 70.236 Q 198.853 70.057 200.309 70.021 A 32.492 32.492 0 0 1 201.1 70.013 L 203.8 70.013 Q 205.425 69.931 208.37 70.114 A 111.553 111.553 0 0 1 209.8 70.213 Q 211.605 70.363 214.145 70.287 A 72.81 72.81 0 0 0 215.9 70.213 A 1.265 1.265 0 0 1 216 70.184 Q 216.293 70.113 216.8 70.113 Q 217.4 70.113 217.9 70.063 Q 218.4 70.013 218.8 70.013 Q 221.8 69.813 221.9 69.813 A 0.851 0.851 0 0 0 222.003 69.786 Q 222.4 69.653 222.4 69.163 Z M 197.4 2.513 Q 196.9 2.413 196.9 1.913 Q 196.9 1.493 197.252 1.355 A 0.877 0.877 0 0 1 197.4 1.313 A 188.707 188.707 0 0 0 197.857 1.255 Q 198.739 1.142 200.5 0.913 Q 202 0.713 203.7 0.713 Q 205.875 0.638 208.388 0.731 A 86.686 86.686 0 0 1 210.1 0.813 A 182.232 182.232 0 0 0 212.025 0.944 Q 213.881 1.06 215.206 1.096 A 40.296 40.296 0 0 0 216.3 1.113 L 218.8 1.113 A 38.586 38.586 0 0 1 219.528 1.154 Q 220.938 1.247 221.282 1.404 A 0.522 0.522 0 0 1 221.3 1.413 Q 221.658 1.502 221.696 1.831 A 0.712 0.712 0 0 1 221.7 1.913 A 0.619 0.619 0 0 1 221.606 2.253 Q 221.506 2.409 221.3 2.513 A 0.921 0.921 0 0 1 221.067 2.605 Q 220.449 2.772 218.873 2.62 A 22.709 22.709 0 0 1 218.8 2.613 Q 217.9 2.513 216.1 2.413 A 658.574 658.574 0 0 0 214.15 2.369 Q 211.735 2.318 210.4 2.313 A 75.568 75.568 0 0 0 210.1 2.313 Q 209.63 2.391 208.855 2.438 A 28.685 28.685 0 0 1 208.4 2.463 A 105.592 105.592 0 0 1 207.923 2.483 Q 207.374 2.506 207.066 2.511 A 9.868 9.868 0 0 1 206.9 2.513 L 205.25 2.513 L 203.6 2.513 A 6.148 6.148 0 0 0 203.486 2.514 Q 202.95 2.525 200.5 2.613 Q 198.408 2.712 197.407 2.514 A 4.1 4.1 0 0 1 197.4 2.513 Z M 221.235 6.136 A 1.093 1.093 0 0 0 221 6.113 A 10.069 10.069 0 0 0 220.616 6.12 Q 219.663 6.157 218.1 6.363 Q 216.2 6.613 215.3 6.613 A 18.383 18.383 0 0 1 215.116 6.621 Q 213.53 6.689 210.397 6.571 A 179.992 179.992 0 0 1 209 6.513 Q 208.1 6.413 207.1 6.313 Q 206.1 6.213 204.95 6.113 A 42.779 42.779 0 0 0 204.846 6.104 Q 204.121 6.042 203.582 6.022 A 13.041 13.041 0 0 0 203.1 6.013 A 34.537 34.537 0 0 0 203.031 6.007 Q 199.085 5.719 197.4 6.513 Q 196.957 6.69 197.103 7.102 A 0.967 0.967 0 0 0 197.15 7.213 Q 197.373 7.658 197.794 7.627 A 0.861 0.861 0 0 0 197.9 7.613 A 58.468 58.468 0 0 1 197.963 7.603 Q 199.813 7.313 200.6 7.313 A 9.164 9.164 0 0 1 200.908 7.292 Q 201.618 7.257 202.486 7.317 A 21.08 21.08 0 0 1 203.5 7.413 A 1476.843 1476.843 0 0 1 204.244 7.475 Q 206.469 7.661 208.113 7.806 A 451.252 451.252 0 0 1 209.3 7.913 Q 212.7 8.013 215.6 8.013 Q 216.3 7.913 217.3 7.813 L 219.3 7.613 Q 219.925 7.55 220.433 7.527 A 12.353 12.353 0 0 1 221 7.513 A 1.369 1.369 0 0 0 221.04 7.512 Q 221.168 7.508 221.272 7.48 A 0.54 0.54 0 0 0 221.65 7.163 A 1.015 1.015 0 0 0 221.672 7.108 Q 221.788 6.785 221.65 6.463 Q 221.539 6.203 221.235 6.136 Z M 220.389 58.961 A 6.838 6.838 0 0 0 220.1 59.013 A 0.23 0.23 0 0 1 220.079 59.022 Q 219.886 59.095 219.049 59.109 A 26.332 26.332 0 0 1 218.6 59.113 Q 217.7 59.013 215.7 59.113 A 498.05 498.05 0 0 1 215.28 59.12 Q 210.276 59.209 209.7 59.113 A 564.594 564.594 0 0 1 209.404 59.105 Q 205.633 59.009 203.9 58.913 Q 203.075 58.838 201.8 58.931 A 28.776 28.776 0 0 0 200.9 59.013 Q 200.225 59.088 199.831 59.106 A 4.93 4.93 0 0 1 199.6 59.113 A 226.707 226.707 0 0 1 199.21 59.14 Q 198.399 59.197 198.117 59.209 A 2.957 2.957 0 0 1 198 59.213 A 1.013 1.013 0 0 0 197.956 59.236 Q 197.746 59.355 197.643 59.549 A 0.868 0.868 0 0 0 197.55 59.863 Q 197.5 60.313 197.9 60.513 A 1.272 1.272 0 0 0 197.971 60.54 Q 198.702 60.803 200.7 60.613 Q 202.497 60.534 203.317 60.517 A 18.954 18.954 0 0 1 203.7 60.513 A 72.501 72.501 0 0 0 204.756 60.571 Q 207.367 60.696 209.7 60.613 Q 210.7 60.613 212.75 60.563 A 110.232 110.232 0 0 0 212.787 60.562 Q 214.809 60.512 215.8 60.413 A 55.046 55.046 0 0 1 216.879 60.423 Q 217.389 60.433 217.838 60.453 A 25.093 25.093 0 0 1 218.8 60.513 L 220.2 60.513 Q 220.796 60.645 221.217 60.558 A 1.217 1.217 0 0 0 221.6 60.413 Q 222 60.113 221.95 59.613 Q 221.9 59.113 221.4 59.013 A 0.483 0.483 0 0 0 221.274 58.955 Q 220.99 58.867 220.389 58.961 Z M 197.95 12.654 A 8.893 8.893 0 0 0 197.9 12.663 Q 197.634 12.707 197.446 12.436 A 1.007 1.007 0 0 1 197.4 12.363 A 0.845 0.845 0 0 1 197.335 12.222 Q 197.251 11.981 197.369 11.764 A 0.678 0.678 0 0 1 197.4 11.713 A 1.637 1.637 0 0 1 197.916 11.258 Q 198.463 10.938 199.4 10.813 A 11.873 11.873 0 0 1 199.9 10.769 Q 200.467 10.73 201.247 10.718 A 48.718 48.718 0 0 1 202 10.713 Q 202.842 10.713 204.329 10.683 A 322.907 322.907 0 0 0 205.3 10.663 Q 207.5 10.613 208.6 10.613 Q 209.059 10.613 209.812 10.671 A 38.023 38.023 0 0 1 210.3 10.713 Q 211.252 10.799 211.68 10.811 A 4.458 4.458 0 0 0 211.8 10.813 Q 213.408 10.889 214.488 10.907 A 37.025 37.025 0 0 0 215.1 10.913 L 216.2 10.913 L 217.2 10.913 L 218.3 10.913 A 40.437 40.437 0 0 1 219.147 10.961 Q 220.268 11.038 220.788 11.155 A 2.215 2.215 0 0 1 221 11.213 A 0.572 0.572 0 0 1 221.185 11.406 Q 221.28 11.573 221.25 11.813 Q 221.2 12.213 220.8 12.413 A 3.886 3.886 0 0 1 220.714 12.411 Q 220.315 12.401 218.375 12.323 A 1441.45 1441.45 0 0 1 218.1 12.313 L 215.1 12.313 L 212.1 12.213 L 210.5 12.213 A 1.906 1.906 0 0 0 210.302 12.223 Q 210.183 12.236 210.05 12.263 A 2.524 2.524 0 0 1 209.753 12.303 A 3.227 3.227 0 0 1 209.5 12.313 L 209 12.313 Q 206 12.413 202.4 12.413 L 200.1 12.413 Q 199.767 12.413 199.193 12.482 A 19.152 19.152 0 0 0 198.95 12.513 Q 198.259 12.605 197.95 12.654 Z M 201.863 40.106 A 24.822 24.822 0 0 0 202.4 40.113 A 11.782 11.782 0 0 0 202.529 40.111 Q 203.136 40.101 206.425 40.036 A 10394.547 10394.547 0 0 0 207.6 40.013 Q 208.9 40.013 212.3 39.913 Q 213.963 39.825 214.324 39.814 A 2.788 2.788 0 0 1 214.4 39.813 A 6.327 6.327 0 0 1 214.692 39.819 Q 214.896 39.828 215.072 39.852 A 2.935 2.935 0 0 1 215.4 39.913 Q 215.98 39.995 216.217 39.941 A 0.375 0.375 0 0 0 216.3 39.913 A 0.913 0.913 0 0 0 216.453 39.86 A 0.599 0.599 0 0 0 216.8 39.463 A 0.7 0.7 0 0 0 216.806 39.44 Q 216.891 39.103 216.6 38.813 Q 216.363 38.497 215.442 38.368 A 8.101 8.101 0 0 0 214.9 38.313 Q 214.3 38.313 212.7 38.413 Q 211.8 38.413 210.1 38.363 A 273.803 273.803 0 0 0 209.525 38.346 Q 208.645 38.322 208.142 38.315 A 25.616 25.616 0 0 0 207.8 38.313 L 202.7 38.313 A 54.016 54.016 0 0 0 201.906 38.318 Q 200.689 38.336 200 38.413 A 2.974 2.974 0 0 1 199.773 38.459 Q 199.379 38.525 198.7 38.563 A 62.365 62.365 0 0 0 198.3 38.586 Q 197.683 38.624 197.3 38.663 Q 196.8 38.713 196.8 39.213 Q 196.8 39.601 197.102 39.688 A 0.72 0.72 0 0 0 197.3 39.713 A 1.684 1.684 0 0 0 197.302 39.713 Q 197.508 39.781 197.807 39.826 A 6.015 6.015 0 0 0 198.1 39.863 Q 198.6 39.913 199.05 39.963 A 10.449 10.449 0 0 0 199.323 39.989 Q 199.596 40.013 199.8 40.013 Q 201 40.088 201.863 40.106 Z M 216.738 29.413 A 1.482 1.482 0 0 0 216.5 29.313 Q 216 29.113 215.45 29.063 Q 215.072 29.028 214.528 29.017 A 26.821 26.821 0 0 0 214 29.013 L 212.9 29.013 A 90.007 90.007 0 0 1 212.85 29.012 Q 211.291 29.012 209.188 28.956 A 250.994 250.994 0 0 1 207.7 28.913 Q 204.45 28.831 203.115 28.816 A 46.488 46.488 0 0 0 202.6 28.813 Q 202.2 28.813 201.4 28.763 A 38.806 38.806 0 0 0 201.235 28.753 Q 200.547 28.713 200.1 28.713 A 5.325 5.325 0 0 0 199.956 28.714 Q 199.509 28.727 198.95 28.813 A 6.166 6.166 0 0 0 198.374 28.928 A 4.559 4.559 0 0 0 197.8 29.113 A 0.769 0.769 0 0 0 197.681 29.172 Q 197.326 29.391 197.5 29.913 A 1.578 1.578 0 0 0 197.525 29.982 Q 197.73 30.513 198.2 30.513 Q 201.788 30.6 202.542 30.611 A 12.158 12.158 0 0 0 202.7 30.613 A 71.28 71.28 0 0 0 202.73 30.615 Q 204.947 30.767 206.696 30.743 A 29.684 29.684 0 0 0 207.7 30.713 A 14.668 14.668 0 0 0 207.729 30.712 Q 208.322 30.711 209.2 30.663 Q 210.1 30.613 211 30.613 L 212.5 30.613 Q 212.8 30.613 213.65 30.513 Q 214.181 30.45 214.615 30.427 A 9.024 9.024 0 0 1 215.1 30.413 A 3.39 3.39 0 0 1 215.394 30.425 A 2.815 2.815 0 0 1 216.2 30.613 A 0.895 0.895 0 0 0 216.25 30.623 Q 216.619 30.694 216.9 30.413 Q 217.325 29.732 216.738 29.413 Z M 212.9 33.313 A 1.844 1.844 0 0 0 212.942 33.312 Q 213.137 33.307 214.069 33.268 A 637.034 637.034 0 0 0 214.2 33.263 A 24.645 24.645 0 0 1 214.392 33.255 Q 215.408 33.221 215.5 33.313 A 0.766 0.766 0 0 1 215.808 33.442 Q 215.967 33.56 216.047 33.767 A 1.095 1.095 0 0 1 216.1 33.963 A 0.91 0.91 0 0 1 216.112 34.048 Q 216.15 34.494 215.66 34.601 A 1.223 1.223 0 0 1 215.6 34.613 A 10.988 10.988 0 0 1 214.912 34.68 Q 213.443 34.782 210.9 34.663 Q 207.82 34.518 206.315 34.42 A 76.002 76.002 0 0 1 206.2 34.413 A 81.932 81.932 0 0 0 205.029 34.314 Q 203.006 34.159 201.88 34.194 A 9.363 9.363 0 0 0 201.5 34.213 A 0.881 0.881 0 0 1 201.291 34.284 Q 201.193 34.305 201.079 34.311 A 1.684 1.684 0 0 1 201 34.312 L 200.4 34.313 L 199.8 34.313 A 1.088 1.088 0 0 0 199.649 34.327 Q 199.252 34.385 198.178 34.69 A 49.78 49.78 0 0 0 198.1 34.713 A 0.672 0.672 0 0 1 197.998 34.73 Q 197.673 34.759 197.458 34.425 A 1.114 1.114 0 0 1 197.45 34.413 A 1.011 1.011 0 0 1 197.393 34.308 Q 197.259 34.024 197.444 33.856 A 0.478 0.478 0 0 1 197.5 33.813 A 2.882 2.882 0 0 1 197.763 33.579 Q 197.91 33.463 198.058 33.384 A 1.713 1.713 0 0 1 198.1 33.363 Q 198.353 33.236 198.711 33.181 A 3.288 3.288 0 0 1 198.85 33.163 Q 199.289 33.114 199.585 33.065 A 7.638 7.638 0 0 0 199.6 33.063 A 2.974 2.974 0 0 1 199.807 33.036 Q 200.056 33.013 200.4 33.013 L 201.1 33.013 Q 202.893 32.824 203.172 32.813 A 0.755 0.755 0 0 1 203.2 32.813 Q 203.542 32.813 205.056 32.959 A 169.579 169.579 0 0 1 205.6 33.013 Q 206.667 33.095 209.282 33.244 A 784.676 784.676 0 0 0 210.5 33.313 Q 212.4 33.413 212.9 33.313 Z" vector-effect="non-scaling-stroke"/></g></svg>