<svg height="257" viewBox="0 0 257 257" width="257" xmlns="http://www.w3.org/2000/svg" xmlns:xlink="http://www.w3.org/1999/xlink"><mask id="a" fill="#fff"><path d="m0 0h213.685908v130.158416h-213.685908z" fill="#fff" fill-rule="evenodd"/></mask><g fill="none" fill-rule="evenodd"><path d="m14 13.990099h223.015385v223.128713h-223.015385z"/><g fill="#fff" transform="translate(23.328548 60.475248)"><path d="m83.26744 18.5940594h-64.7209231c-5.1851077 0-9.29230767 4.1743663-9.29230767 9.2970297v74.3762379c0 5.122663 4.10719997 9.297029 9.29230767 9.297029h48.3943385l-3.9213539 9.29703h-44.4729846c-10.33304613 0-18.54744613-8.367327-18.54744613-18.594059v-74.3762379c0-10.2267327 8.2144-18.5940594 18.54744613-18.5940594h71.7923693zm83.956 13.9455446v65.0792079c0 2.5566831-2.062892 4.6485151-4.646154 4.6485151h-52.761723l31.0456-40.906931c2.118646-2.817 3.038585-7.6049703 1.458892-10.7566633-1.5704-3.1516931-5.370953-4.1185842-8.892738-4.1185842h-26.3344s4.1072-9.4829703 7.926338-18.5940594h47.362893c2.583261 0 4.841292 2.0918317 4.841292 4.6485149zm-148.6304615 65.0792079v-65.2000693c0-2.5566832 2.1093538-4.5276535 4.6926153-4.5276535h52.9104l-31.3057846 40.9069307c-2.1186461 2.817-2.8806154 7.4562178-1.3102154 10.6079109 1.5796924 3.1516931 5.222277 4.2673366 8.7347693 4.2673366h26.4087384l-7.852 18.5940597h-47.5859077c-2.5832615 0-4.6926153-2.091832-4.6926153-4.6485151zm148.4910765 23.2425741h-71.374215l7.052862-9.259841 64.460738-.037189c5.185108 0 9.329477-4.174366 9.329477-9.297029v-74.3762379c0-5.1226634-3.085046-9.2970297-9.329477-9.2970297h-48.301415c1.867753-4.4439802 2.685477-6.3870594 3.902769-9.2970297h44.398646c10.333046 0 18.621785 8.3673267 18.621785 18.5940594l-.03717 74.3762379c0 10.226732-8.400246 18.594059-18.724 18.594059zm28.18357-34.6593266v-42.245703c8.836984 0 16.010646 7.0936337 16.010646 15.8421386v10.5614258c0 8.757802-7.173662 15.8421386-16.010646 15.8421386z" mask="url(#a)"/><path d="m111.507692 0-55.7538458 74.3762376h37.1692307l-18.5846154 55.7821784 55.7538465-74.3762378h-37.1692311z"/></g></g></svg>